<svg width="16" height="14" viewBox="0 0 16 14" fill="none" xmlns="http://www.w3.org/2000/svg">
<path opacity="0.25" d="M0.259652 4.93237L5.75978 0.182841C6.24122 -0.23294 7 0.104591 7 0.750466V2.2635C7 2.81132 7.4413 3.255 7.98868 3.27707C12.5324 3.46031 16 4.63259 16 9.07268C16 10.9927 14.7631 12.8948 13.3958 13.8893C12.9692 14.1997 12.3611 13.8102 12.5184 13.3071C13.8321 9.10582 12.1323 7.7655 8.01564 7.53683C7.45858 7.50588 7 7.95924 7 8.51715V10.25C7 10.8969 6.24062 11.2329 5.75978 10.8176L0.259652 6.06762C-0.0863164 5.76881 -0.0867851 5.23159 0.259652 4.93237Z" fill="#131735"/>
</svg>
