<svg width="20" height="21" viewBox="0 0 20 21" fill="none" xmlns="http://www.w3.org/2000/svg">
<path d="M17.5 9.66669V10.0834C17.5029 11.1832 17.2459 12.2683 16.75 13.25C16.162 14.4265 15.2581 15.416 14.1395 16.1078C13.021 16.7995 11.7319 17.1662 10.4167 17.1667C9.31678 17.1696 8.23176 16.9126 7.25 16.4167L2.5 18L4.08333 13.25C3.58744 12.2683 3.33047 11.1832 3.33333 10.0834C3.33384 8.76815 3.70051 7.47907 4.39227 6.36048C5.08402 5.2419 6.07355 4.338 7.25 3.75002C8.23176 3.25413 9.31678 2.99716 10.4167 3.00002H10.8333C11.7041 3.04806 12.5506 3.25626 13.3333 3.60694" stroke="#FFFEFE" stroke-width="2" stroke-linecap="round" stroke-linejoin="round"/>
<path d="M18.3333 3.83325L10 12.1749L7.5 9.67492" stroke="#FFFEFE" stroke-width="2" stroke-linecap="round" stroke-linejoin="round"/>
</svg>