<svg width="151" height="123" viewBox="0 0 151 123" fill="none" xmlns="http://www.w3.org/2000/svg">
<g clip-path="url(#clip0)">
<path opacity="0.1" d="M146.853 71.3029C146.853 71.3963 146.853 71.4897 146.853 71.5816C146.836 73.193 146.741 74.8003 146.567 76.4034C146.568 76.4131 146.568 76.4229 146.567 76.4325C146.554 76.5658 146.538 76.6975 146.523 76.8308C146.497 77.0559 146.47 77.2796 146.439 77.5047C146.083 80.2454 145.495 82.9506 144.679 85.5906C143.587 89.1579 142.044 92.5699 140.086 95.7427C139.484 96.7127 138.842 97.6517 138.161 98.5595C137.798 99.0404 137.427 99.5106 137.044 99.9732C136.776 100.297 136.502 100.616 136.223 100.929L136.049 101.122C134.582 102.738 133.001 104.246 131.318 105.634C128.571 107.92 125.614 109.908 122.609 111.752C122.438 111.858 122.265 111.962 122.093 112.058C122.081 112.067 122.068 112.075 122.055 112.081C117.971 114.56 113.736 116.796 109.373 118.586C104.596 120.552 99.6637 121.981 94.6031 122.606C87.5494 123.476 80.4103 122.768 73.3993 121.552C67.5685 120.546 61.8082 119.165 56.1543 117.416L55.2234 117.124C54.7411 116.969 54.2594 116.812 53.7781 116.652C50.8714 115.687 47.9972 114.615 45.1556 113.435C38.0187 110.485 31.2008 106.811 24.8079 102.47C23.994 101.921 23.1918 101.359 22.4013 100.785C21.2964 99.9865 20.2047 99.1645 19.1262 98.319L18.4608 97.8013C15.6385 95.5832 12.9943 93.1459 10.5525 90.5119C7.26834 86.9247 4.46182 82.8779 2.61675 78.2583C2.32577 77.5323 2.05921 76.7925 1.81707 76.0389L1.79418 75.9638C1.67209 75.5809 1.55916 75.198 1.45538 74.7997C1.30277 74.23 1.16898 73.653 1.05401 73.0689C1.0296 72.9571 1.00823 72.8453 0.988392 72.732C0.623634 70.7663 0.462534 68.768 0.507667 66.769C0.545836 65.0176 0.750241 63.2738 1.11811 61.5613C1.49464 59.786 2.07487 58.0605 2.8472 56.4194C3.54515 54.9436 4.43444 53.5669 5.49195 52.3251C6.23505 51.4569 7.07076 50.6731 7.98409 49.9878C9.63992 48.7501 11.4758 47.8878 13.3789 47.2062C14.2732 46.8845 15.1797 46.6027 16.0908 46.3408C16.7363 46.1539 17.3849 45.9762 18.0305 45.8016L19.9351 45.2854C21.156 44.9515 22.3768 44.6084 23.5794 44.2378C26.8575 43.233 30.07 42.0168 33.0413 40.2033C33.5114 39.9168 33.9906 39.6028 34.4698 39.2659C35.0802 38.84 35.6815 38.3775 36.2767 37.8781C36.878 37.3727 37.467 36.832 38.0286 36.2591C38.1156 36.1703 38.2011 36.0815 38.2866 35.9911C38.7444 35.5071 39.1885 35.0001 39.6005 34.4732C39.802 34.2158 39.9973 33.9539 40.1835 33.6874C40.4414 33.3183 40.6856 32.943 40.9115 32.557C42.0438 30.6271 42.7428 28.498 42.6604 26.2541C42.6483 25.8844 42.6152 25.5156 42.5612 25.1497C42.3628 23.7972 42.172 22.4769 42.0316 21.1857C41.4426 15.8447 41.6913 11.0014 45.6852 6.45074C50.6511 0.79418 58.445 -0.359189 65.5399 0.0926622C86.0523 1.39461 104.726 13.1489 121.136 27.1425C122.555 28.3515 123.957 29.5768 125.342 30.8185C125.691 31.131 126.041 31.4455 126.391 31.7621C128.985 34.1071 131.54 36.5394 133.919 39.1449C134.111 39.3562 134.303 39.5676 134.493 39.7805C134.609 39.9122 134.726 40.0424 134.841 40.1757C135.582 41.0181 136.302 41.881 137 42.7643C138.87 45.1092 140.521 47.6215 141.932 50.2696C144.094 54.4254 145.557 58.9107 146.264 63.5448C146.529 65.2277 146.704 66.9237 146.787 68.6255C146.813 69.1263 146.83 69.6287 146.839 70.1296C146.839 70.2904 146.839 70.4497 146.839 70.6105C146.854 70.8434 146.854 71.0701 146.853 71.3029Z" fill="#04A777"/>
<path d="M60.6258 68.7334L58.184 112.355L60.6258 112.387L62.6097 68.1208L60.6258 68.7334Z" fill="#3F3D56"/>
<path d="M51.6217 90.8343H21.4047V97.4206H51.6217V90.8343Z" fill="#04A777"/>
<path d="M53.6056 96.6533V100.789H22.3921C21.2872 99.9903 20.1955 99.1683 19.117 98.3228V96.6533H53.6056Z" fill="#3F3D56"/>
<path d="M59.8383 87.241C59.7528 87.6377 59.6414 88.0298 59.5239 88.4204C59.1775 89.5492 58.7608 90.6628 58.68 91.8361C58.5716 93.3861 58.9852 95.1889 57.9169 96.3147C57.6422 96.6058 57.2836 96.8233 57.0379 97.1342C57 97.183 56.9654 97.2341 56.9341 97.2874C56.7143 97.6519 56.6884 98.0961 56.6853 98.5127C56.6879 99.4013 56.7455 100.289 56.8578 101.17C57.2195 104.203 57.9337 107.242 56.9951 110.105C56.8251 110.601 56.6269 111.087 56.4015 111.561C55.9436 112.572 55.4446 113.569 55.295 114.664C55.1852 115.476 55.2187 116.313 55.2126 117.138C54.7304 116.984 54.2486 116.827 53.7674 116.666C50.8607 115.701 47.9865 114.629 45.1449 113.45C45.1525 113.408 45.1601 113.366 45.1662 113.324C45.3845 111.961 45.0854 110.567 44.7221 109.238C43.9591 106.421 42.8786 103.632 42.2392 100.795C41.9816 99.687 41.8127 98.5602 41.734 97.4252C41.7157 97.171 41.705 96.9152 41.7035 96.6594C41.6959 96.3255 41.7035 95.9916 41.7172 95.6546C41.7493 94.9822 41.7783 94.1841 41.2426 93.7752C40.9481 93.5531 40.5589 93.5148 40.2155 93.38C39.5532 93.1212 39.0999 92.5207 38.575 92.0398C38.3245 91.7959 38.0188 91.6169 37.684 91.5182C37.3493 91.4195 36.9956 91.404 36.6536 91.473C33.2229 92.2619 30.7018 95.1828 27.5091 96.6594C27.3855 96.7176 27.2619 96.7727 27.1368 96.8248C26.7238 96.9766 26.3307 97.1782 25.9662 97.4252C25.7101 97.6037 25.5244 97.8665 25.4412 98.1681C25.3604 98.4928 25.4306 98.8329 25.4702 99.1668C25.5345 99.7097 25.5113 100.259 25.4016 100.795C25.3602 101.002 25.3056 101.207 25.2383 101.408C25.1162 101.771 24.9529 102.126 24.7972 102.48C23.9833 101.93 23.1811 101.369 22.3905 100.795C21.2856 99.9964 20.194 99.1744 19.1155 98.3289L18.4608 97.8005C15.6385 95.5824 12.9942 93.1451 10.5525 90.5111C10.8776 89.5921 11.3476 88.7374 11.5735 87.7954C11.7017 87.2547 11.749 86.6926 11.926 86.1672C12.1301 85.6226 12.4141 85.1115 12.7684 84.6509C14.0661 82.8345 15.6508 81.243 17.4597 79.9394C19.3505 78.5792 21.5344 77.4886 23.236 75.9447C23.9266 75.3379 24.5218 74.6299 25.0017 73.8447C25.0307 73.7972 25.0582 73.7467 25.0826 73.6916C25.2154 73.4143 25.3075 73.1192 25.3558 72.8154C25.4779 72.1292 25.4596 71.3756 25.5206 70.717C27.5935 71.0771 29.7067 71.1411 31.7975 70.9069C34.2316 70.6328 36.6124 69.9542 39.0465 69.6908C39.2297 69.6693 39.4143 69.6525 39.599 69.6371C40.3788 69.5744 41.1602 69.5606 41.9431 69.5698C42.5978 69.5698 43.2525 69.5989 43.9072 69.6203L51.115 69.8654C51.9132 69.8929 52.7281 69.9236 53.4713 70.2161C54.3534 70.5638 55.06 71.2562 55.6262 72.0174C55.6979 72.1154 55.7697 72.2135 55.8368 72.3146C56.3027 72.9967 56.6763 73.7379 56.9478 74.5187C56.9768 74.5983 57.0043 74.6718 57.0302 74.7592C57.0989 74.9721 57.1584 75.1865 57.2118 75.404C57.253 75.574 57.2897 75.744 57.3232 75.9156C57.4911 76.7641 57.5903 77.6311 57.8559 78.4505C57.8742 78.5103 57.894 78.57 57.9154 78.6282C58.2343 79.5258 58.7639 80.3299 59.1637 81.1923C59.452 81.8165 59.6721 82.4703 59.82 83.1421C60.1189 84.4913 60.1251 85.8892 59.8383 87.241Z" fill="#35323E"/>
<path d="M37.9294 32.4261C37.2854 31.9114 36.3514 32.2882 35.5975 32.6206C34.9654 32.9008 34.3148 33.1367 33.6502 33.3267C33.5142 33.3792 33.3667 33.3946 33.2229 33.3711C32.9177 33.2976 32.7895 32.9346 32.5621 32.714C32.1668 32.3326 31.5197 32.423 31.01 32.6298C30.5003 32.8366 29.9967 33.1352 29.4503 33.0893C28.8674 33.0433 28.3607 32.6114 27.7716 32.5976C26.7339 32.5731 25.8624 33.8567 24.8812 33.5166C24.2829 33.3099 23.8129 32.5287 23.2238 32.7508C22.766 32.9254 22.7248 33.5611 22.4485 33.9761C22.1235 34.4602 21.4901 34.5965 20.9484 34.8109C19.2406 35.4879 18.1098 37.398 18.3326 39.2268C18.4562 40.2362 18.9431 41.1613 19.2651 42.1248C20.2204 44.9263 19.8923 48.0862 21.0964 50.7881C21.249 50.6441 21.3345 50.5905 21.4825 50.448C21.1018 51.2405 21.0284 52.1468 21.2765 52.9907C21.4031 53.4149 21.6092 53.8101 21.7648 54.2252C21.9265 54.6908 22.0571 55.1666 22.1555 55.6497L23.4832 61.5283C24.0021 63.8259 24.5225 66.1234 24.6126 68.4761C24.6686 70.0059 24.5519 71.5372 24.2646 73.0406C26.6698 72.6408 28.8704 71.5702 31.3076 71.5839C32.2019 71.5839 33.0886 71.7371 33.9753 71.8596C36.5604 72.2227 39.168 72.4003 41.7783 72.3911C42.1842 72.4143 42.5908 72.3571 42.9747 72.2227C43.3105 72.0787 43.5852 71.8229 43.9026 71.6376C44.5237 71.2699 45.2761 71.178 45.9919 71.178C49.2562 71.1183 52.4015 72.3176 55.6445 72.7404C56.9249 70.0431 57.0012 66.8112 56.0184 63.9913C55.7269 63.1535 55.3347 62.3371 55.2187 61.4564C55.1722 60.9149 55.1599 60.3711 55.1821 59.8282C55.177 58.4381 54.9275 57.0599 54.445 55.7569C54.2558 55.2468 54.0284 54.7276 54.0482 54.1838C54.068 53.6401 54.3351 53.1331 54.5976 52.6521C55.1302 51.6719 55.6659 50.6824 56.4183 49.8553C57.1889 49.0006 58.1534 48.3496 59.1073 47.7109L61.4621 46.124C61.14 44.0823 60.7249 41.9318 59.8627 40.0539C59.0004 38.1761 57.7109 36.4498 55.9665 35.3516C55.3784 34.9965 54.763 34.6892 54.126 34.4326C53.2348 34.0558 52.3069 33.7234 51.3409 33.6667C50.2421 33.6039 49.1601 33.8996 48.075 34.0834C44.6596 34.6608 40.6398 34.5904 37.9294 32.4261Z" fill="#04A777"/>
<path d="M63.678 67.8573L62.5578 69.2772L60.4457 71.9531L58.0039 75.0456L57.3217 75.9095H55.9986L23.2345 75.9477L2.71592 75.9707H1.80025C1.67816 75.5878 1.56523 75.2049 1.46145 74.8066C1.30884 74.2368 1.17505 73.6599 1.06009 73.0758C1.03567 72.964 1.0143 72.8522 0.994465 72.7388L8.43884 67.8542L11.2377 67.8389L19.7992 67.7899L24.5805 67.7623H25.4535H26.0013L29.1879 67.7455L53.4744 67.6061L54.7167 67.5984H55.2554L56.6823 67.5908L61.9916 67.5602L63.0111 67.1711L63.0859 67.2507L63.678 67.8573Z" fill="#3F3D56"/>
<path d="M63.2201 67.0915L63.0935 67.2446L62.2602 68.2295L60.5448 70.2621L56.9478 74.5187L25.0826 73.7023L1.05397 73.0896C1.02955 72.9778 1.00818 72.8659 0.988342 72.7526C0.623584 70.7869 0.462484 68.7887 0.507617 66.7897L3.17221 65.4204L3.78265 65.1048L8.53344 62.6541L12.7028 60.5098L23.5778 61.9281L25.986 62.2421L27.0757 62.383L28.6705 62.5913L28.8048 62.6097L53.8132 65.8646L56.577 66.2245L58.1992 66.4359L63.1988 67.0884L63.2201 67.0915Z" fill="#504F60"/>
<path d="M58.0314 74.4436L58.0054 75.0456L57.8528 78.4444L57.0318 97.1312L56.8578 101.17L56.3999 111.561L56.142 117.431L55.2111 117.138C54.7289 116.984 54.2471 116.827 53.7659 116.666L55.9986 75.9233L56.0459 75.0686L57.0287 74.7622L58.0314 74.4436Z" fill="#3F3D56"/>
<path d="M2.78611 74.3992L2.71743 75.9723L2.61671 78.2698C2.32573 77.5438 2.05917 76.804 1.81703 76.0504L1.79413 75.9753C1.67205 75.5924 1.55911 75.2095 1.45534 74.8112L2.78611 74.3992Z" fill="#3F3D56"/>
<path d="M42.6939 51.2399C46.571 51.2399 49.7141 46.9882 49.7141 41.7434C49.7141 36.4986 46.571 32.2469 42.6939 32.2469C38.8168 32.2469 35.6738 36.4986 35.6738 41.7434C35.6738 46.9882 38.8168 51.2399 42.6939 51.2399Z" fill="#A1616A"/>
<path opacity="0.1" d="M42.6939 51.2399C46.571 51.2399 49.7141 46.9882 49.7141 41.7434C49.7141 36.4986 46.571 32.2469 42.6939 32.2469C38.8168 32.2469 35.6738 36.4986 35.6738 41.7434C35.6738 46.9882 38.8168 51.2399 42.6939 51.2399Z" fill="#131735"/>
<path d="M43.6859 45.8024C49.0802 45.8024 53.453 41.4135 53.453 35.9995C53.453 30.5855 49.0802 26.1966 43.6859 26.1966C38.2917 26.1966 33.9188 30.5855 33.9188 35.9995C33.9188 41.4135 38.2917 45.8024 43.6859 45.8024Z" fill="#A1616A"/>
<path d="M43.8797 20.8908C43.2834 20.9386 42.6913 21.0292 42.1079 21.1619C40.5635 21.5387 39.2281 22.3751 37.9279 23.196C37.3449 23.5652 36.7452 23.9496 36.3835 24.4919C35.7333 25.4645 35.9852 26.7021 35.6204 27.782C35.4312 28.3364 35.0832 28.8342 34.7887 29.3504C33.9783 30.7657 33.5541 32.3204 33.1374 33.8597C33.052 34.1783 33.0276 34.6103 33.374 34.7328C33.5735 34.7744 33.781 34.7508 33.9661 34.6654C35.0603 34.3024 36.4506 34.1982 37.2625 34.935C38.0744 35.6717 38.0057 36.9783 38.9718 37.5389C40.0782 38.1868 41.8057 37.4041 42.8099 38.1684C43.2403 38.4962 43.396 39.0216 43.7485 39.4167C44.5695 40.3358 46.1491 40.2913 47.463 40.106C48.2169 39.9988 49.1418 39.9268 49.5996 40.4583C49.8194 40.7095 49.8819 41.0541 50.1368 41.2808C50.5946 41.6913 51.4325 41.483 51.8796 41.0618C52.3268 40.6406 52.5404 40.0708 52.9128 39.5975C53.6377 38.6785 54.912 38.1776 55.6598 37.2693C56.2855 36.5034 56.4747 35.5446 56.6456 34.6195L57.282 31.19C57.5399 29.7992 57.775 28.2798 56.9951 27.0544C56.7174 26.6133 56.3191 26.2334 56.0795 25.777C55.9192 25.4706 55.8292 25.1474 55.643 24.8579C55.4222 24.5564 55.1584 24.289 54.8601 24.0645L53.3538 22.8131C52.8388 22.3607 52.2881 21.9509 51.7072 21.5878C49.5569 20.3302 46.3368 20.6611 43.8797 20.8908Z" fill="#464353"/>
<path d="M11.7093 46.1424C11.3476 46.5284 11.0134 46.945 10.6257 47.3065C10.2847 47.6109 9.92817 47.8972 9.55746 48.1643C8.95923 48.6136 8.37422 49.0787 7.80244 49.5596C7.20591 50.033 6.66612 50.5743 6.19392 51.1725C5.37897 52.2708 4.99287 53.637 4.22981 54.772C3.55527 55.7783 2.6045 56.5733 1.91928 57.572C1.61867 57.9918 1.39539 58.4624 1.26 58.9612C1.15894 59.444 1.11337 59.9369 1.12417 60.4301C1.11044 61.2389 1.09823 62.0568 1.26305 62.8487C1.42787 63.6406 1.78956 64.4187 2.40916 64.9379C2.9845 65.4204 3.72772 65.6425 4.45568 65.8263C4.8311 65.9197 5.23704 66.007 5.59415 65.8585C5.85547 65.726 6.08229 65.534 6.25649 65.2979L8.11376 63.1535C9.35602 61.7137 10.6471 60.2432 12.3518 59.4008C12.8859 59.1389 13.4491 58.9413 13.9847 58.687C16.2556 57.5888 17.861 55.3403 18.4837 52.8896C18.6363 52.2907 18.734 51.6795 18.8332 51.0684L19.1018 49.3927C19.1224 49.3087 19.1224 49.2209 19.1018 49.1369C19.0597 49.0424 18.992 48.9617 18.9064 48.9041C17.6128 47.8555 16.4015 46.7084 15.2834 45.4731C15.0179 45.179 14.7691 44.7761 14.4624 44.5295C14.0778 44.2232 14.1068 44.2462 13.6444 44.5295C12.9331 44.9816 12.2827 45.5237 11.7093 46.1424Z" fill="#A1616A"/>
<path d="M24.4142 57.2932C24.3987 57.2576 24.3763 57.2255 24.3482 57.1989C24.3201 57.1722 24.2869 57.1516 24.2506 57.1381C24.2144 57.1247 24.1758 57.1187 24.1371 57.1206C24.0985 57.1225 24.0607 57.1322 24.0259 57.1491C23.9911 57.1661 23.9601 57.1899 23.9347 57.2192C23.9093 57.2484 23.8901 57.2826 23.8782 57.3195C23.8663 57.3564 23.8619 57.3953 23.8654 57.434C23.8688 57.4726 23.8801 57.5102 23.8983 57.5444L23.7457 57.6194L28.2966 66.9812L29.1192 66.5783L24.5683 57.2105L24.4142 57.2932Z" fill="#3F3D56"/>
<path opacity="0.04" d="M11.7093 46.1424C11.3476 46.5284 11.0134 46.945 10.6257 47.3065C10.2847 47.6109 9.92817 47.8972 9.55746 48.1643C8.95923 48.6136 8.37422 49.0787 7.80244 49.5596C7.20591 50.033 6.66612 50.5743 6.19392 51.1725C5.37897 52.2708 4.99287 53.637 4.22981 54.772C3.55527 55.7783 2.6045 56.5733 1.91928 57.572C1.61867 57.9918 1.39539 58.4624 1.26 58.9612C1.15894 59.444 1.11337 59.9369 1.12417 60.4301C1.11044 61.2389 1.09823 62.0568 1.26305 62.8487C1.42787 63.6406 1.78956 64.4187 2.40916 64.9379C2.9845 65.4204 3.72772 65.6425 4.45568 65.8263C4.8311 65.9197 5.23704 66.007 5.59415 65.8585C5.85547 65.726 6.08229 65.534 6.25649 65.2979L8.11376 63.1535C9.35602 61.7137 10.6471 60.2432 12.3518 59.4008C12.8859 59.1389 13.4491 58.9413 13.9847 58.687C16.2556 57.5888 17.861 55.3403 18.4837 52.8896C18.6363 52.2907 18.734 51.6795 18.8332 51.0684L19.1018 49.3927C19.1224 49.3087 19.1224 49.2209 19.1018 49.1369C19.0597 49.0424 18.992 48.9617 18.9064 48.9041C17.6128 47.8555 16.4015 46.7084 15.2834 45.4731C15.0179 45.179 14.7691 44.7761 14.4624 44.5295C14.0778 44.2232 14.1068 44.2462 13.6444 44.5295C12.9331 44.9816 12.2827 45.5237 11.7093 46.1424Z" fill="#131735"/>
<path d="M64.3205 63.3955C64.3052 64.3727 64.2671 65.379 63.8626 66.2705C63.6887 66.6565 63.4185 67.0363 63.0141 67.1635C62.7694 67.2202 62.5161 67.2296 62.2678 67.191C59.2738 66.9269 56.2568 67.1671 53.3416 67.9017C54.1199 66.3394 53.6728 64.4661 53.888 62.7323C53.9475 62.259 54.0558 61.7933 54.097 61.3185C54.2497 59.6336 53.5309 57.9978 53.2012 56.3344C52.9151 54.8944 52.9151 53.412 53.2012 51.9721C53.2574 51.6014 53.3843 51.2452 53.5751 50.9229C53.7986 50.6093 54.0924 50.3527 54.4328 50.1739C55.6689 49.4677 57.1264 49.3866 58.5151 49.48C59.4506 49.5428 61.3262 49.454 62.1061 50.0314C62.9592 50.664 63.2293 52.7885 63.4597 53.7703C63.8048 55.2761 64.0394 56.8053 64.1618 58.3455C64.3113 60.0242 64.3434 61.7106 64.3205 63.3955Z" fill="#A1616A"/>
<path d="M9.65363 66.7867L15.1476 70.4627L39.8706 69.5437L23.5412 66.7867H9.65363Z" fill="white"/>
<path d="M16.8981 37.5787C15.9961 38.3767 15.2315 39.3172 14.3769 40.1673C13.2049 41.3344 11.8726 42.327 10.5464 43.3149C11.0219 43.4483 11.4547 43.7033 11.8025 44.0551C12.1503 44.4068 12.4011 44.8432 12.5303 45.3214C12.5883 45.5466 12.6173 45.7809 12.6829 46.0015C12.8356 46.5238 13.1713 46.9741 13.5315 47.38C15.0789 49.1308 17.2445 50.4266 18.1571 52.5878C18.1869 52.693 18.2515 52.7848 18.3402 52.8482C18.4145 52.8812 18.497 52.8908 18.5768 52.8758C19.4024 52.7885 20.0342 52.1206 20.5607 51.4712C21.6595 50.0927 22.6134 48.5702 23.1551 46.8884C23.6969 45.2065 23.7839 43.3471 23.1933 41.6806C22.8987 40.8504 22.444 40.0876 21.9922 39.3325C21.5965 38.6718 21.2017 38.0122 20.808 37.3535C20.6019 37.0058 20.3394 36.2997 19.935 36.1282C19.0621 35.7514 17.4581 37.0166 16.8981 37.5787Z" fill="#04A777"/>
<path d="M61.8482 47.4781L63.1469 50.5415C61.7331 50.0457 60.222 49.8947 58.7386 50.1011C57.2552 50.3076 55.842 50.8654 54.6159 51.7285C53.8758 52.26 53.1966 52.9278 52.8624 53.7764C52.6975 53.8079 52.527 53.7919 52.3707 53.7304C52.2143 53.6689 52.0785 53.5643 51.9788 53.4287C51.7835 53.1537 51.6702 52.8286 51.6522 52.4913C51.5317 51.315 51.9758 50.1616 52.4153 49.0618C52.6198 48.5472 52.8304 48.0218 53.1936 47.6037C53.5568 47.1855 54.0391 46.9098 54.5213 46.6494C56.0598 45.7954 57.6712 45.0809 59.3362 44.5142C60.0382 44.286 60.7738 44.2906 61.1675 44.9492C61.6238 45.735 61.4911 46.6418 61.8482 47.4781Z" fill="#04A777"/>
<path d="M9.68567 56.6698C10.0107 56.9302 10.2961 57.238 10.6303 57.4862C10.9838 57.7325 11.3599 57.9443 11.7535 58.1188L13.2583 58.8448C13.7246 59.0881 14.2125 59.287 14.7157 59.4391C15.3597 59.6122 16.0358 59.629 16.6829 59.7899C17.4994 59.992 18.2456 60.4133 19.0499 60.6568C19.8542 60.9003 20.7958 60.9402 21.4672 60.4332C21.8869 60.1161 22.2044 59.5923 22.7248 59.5142C23.0605 59.4697 23.384 59.6321 23.6832 59.7899L27.5992 61.8561C28.1272 62.1349 28.6858 62.4443 28.962 62.9758C29.2382 63.5073 29.052 64.3145 28.4706 64.4524C28.2679 64.4757 28.0641 64.4875 27.8601 64.4876C27.6587 64.5121 27.4389 64.6316 27.4115 64.8353C27.4104 64.9618 27.4437 65.0862 27.5076 65.1952C27.6831 65.5996 27.735 66.0836 27.5305 66.4757C27.326 66.8678 26.8239 67.1114 26.4225 66.9352C26.4912 67.528 25.8487 67.9431 25.2764 68.1009C23.8327 68.4976 22.302 68.254 20.8263 68.0028C20.2464 67.9048 19.6573 67.8037 19.1292 67.5433C18.8759 67.4193 18.6409 67.26 18.3845 67.1451C17.681 66.8311 16.8813 66.8724 16.1121 66.8862C12.5548 66.949 9.02791 66.2873 5.53006 65.6287C4.88147 65.5062 4.21456 65.376 3.66058 65.016C2.5923 64.3176 2.19551 62.8839 2.37101 61.6156C2.54652 60.3474 3.18748 59.1986 3.81777 58.0836L4.63424 56.6392C4.74097 56.4179 4.89036 56.2201 5.07376 56.0571C6.27481 55.1366 8.65707 55.8396 9.68567 56.6698Z" fill="#A1616A"/>
<path opacity="0.04" d="M9.68567 56.6698C10.0107 56.9302 10.2961 57.238 10.6303 57.4862C10.9838 57.7325 11.3599 57.9443 11.7535 58.1188L13.2583 58.8448C13.7246 59.0881 14.2125 59.287 14.7157 59.4391C15.3597 59.6122 16.0358 59.629 16.6829 59.7899C17.4994 59.992 18.2456 60.4133 19.0499 60.6568C19.8542 60.9003 20.7958 60.9402 21.4672 60.4332C21.8869 60.1161 22.2044 59.5923 22.7248 59.5142C23.0605 59.4697 23.384 59.6321 23.6832 59.7899L27.5992 61.8561C28.1272 62.1349 28.6858 62.4443 28.962 62.9758C29.2382 63.5073 29.052 64.3145 28.4706 64.4524C28.2679 64.4757 28.0641 64.4875 27.8601 64.4876C27.6587 64.5121 27.4389 64.6316 27.4115 64.8353C27.4104 64.9618 27.4437 65.0862 27.5076 65.1952C27.6831 65.5996 27.735 66.0836 27.5305 66.4757C27.326 66.8678 26.8239 67.1114 26.4225 66.9352C26.4912 67.528 25.8487 67.9431 25.2764 68.1009C23.8327 68.4976 22.302 68.254 20.8263 68.0028C20.2464 67.9048 19.6573 67.8037 19.1292 67.5433C18.8759 67.4193 18.6409 67.26 18.3845 67.1451C17.681 66.8311 16.8813 66.8724 16.1121 66.8862C12.5548 66.949 9.02791 66.2873 5.53006 65.6287C4.88147 65.5062 4.21456 65.376 3.66058 65.016C2.5923 64.3176 2.19551 62.8839 2.37101 61.6156C2.54652 60.3474 3.18748 59.1986 3.81777 58.0836L4.63424 56.6392C4.74097 56.4179 4.89036 56.2201 5.07376 56.0571C6.27481 55.1366 8.65707 55.8396 9.68567 56.6698Z" fill="#131735"/>
<path d="M56.2718 59.3166C55.4767 59.6934 54.564 59.7301 53.7338 60.0196C52.9036 60.3091 52.1986 60.8299 51.437 61.2542C49.4531 62.3662 47.1639 62.7859 44.916 63.1856C43.5531 63.4307 42.169 63.6758 40.7955 63.6176C38.9366 63.5379 37.1511 62.916 35.3503 62.4473C33.5495 61.9786 31.6281 61.6631 29.8441 62.19C28.9125 62.4747 28.0608 62.9758 27.3582 63.6525C26.6555 64.3292 26.1217 65.1626 25.7999 66.0851C25.426 67.1864 25.3741 68.3735 25.4458 69.5345C25.8212 69.8118 26.3462 69.4273 26.5507 69.0061C26.7552 68.5849 26.8666 68.0687 27.2634 67.8236C27.9517 68.058 28.1196 68.9785 28.6873 69.4334C29.0413 69.7183 29.5144 69.7934 29.9646 69.8577L32.2843 70.1886C32.8429 70.2682 33.4915 70.3218 33.8959 69.9266C34.0928 69.7352 34.2011 69.4671 34.3812 69.2619C34.7505 68.8514 35.3671 68.7809 35.9165 68.8361C37.6318 69.0076 39.2403 70.1242 40.9435 69.8592C41.5295 69.7689 42.0743 69.5177 42.6329 69.3201C45.943 68.1468 49.621 68.8606 53.0654 68.1882C54.3794 67.9324 55.6445 67.479 56.8944 67.0011C57.5735 66.7422 58.2603 66.4711 58.8402 66.0331C59.3896 65.6091 59.8229 65.0521 60.0994 64.4142C60.3759 63.7764 60.4866 63.0786 60.4213 62.3861C60.2935 61.3307 59.7689 60.3642 58.9547 59.6842C58.6861 59.4544 58.3335 59.0148 58.0115 58.8708C57.3965 58.5997 56.7937 59.07 56.2718 59.3166Z" fill="#A1616A"/>
<g opacity="0.1">
<path opacity="0.1" d="M51.8125 39.7491C51.5576 39.5224 51.495 39.1778 51.2753 38.9266C50.8174 38.3951 49.8926 38.4671 49.1387 38.5743C47.8247 38.7596 46.2391 38.8025 45.4242 37.885C45.0716 37.4899 44.916 36.966 44.4856 36.6367C43.4814 35.8709 41.7539 36.6551 40.6474 36.0072C39.6814 35.442 39.744 34.1309 38.9382 33.4033C38.1324 32.6757 36.736 32.7707 35.6418 33.1337C35.4566 33.2191 35.2491 33.2427 35.0497 33.2011C34.7032 33.0786 34.7276 32.6466 34.8131 32.328C35.2297 30.7887 35.654 29.234 36.4644 27.8187C36.7589 27.3025 37.1068 26.8047 37.2961 26.2503C37.6273 25.2792 37.4579 24.1809 37.8928 23.2619C37.4258 23.5682 36.9771 23.9022 36.6887 24.3341C36.0386 25.3067 36.2904 26.5443 35.9256 27.6242C35.7364 28.1787 35.3884 28.6765 35.0939 29.1927C34.2835 30.6079 33.8593 32.1626 33.4427 33.702C33.3572 34.0206 33.3328 34.4525 33.6792 34.575C33.8787 34.6166 34.0862 34.593 34.2713 34.5076C35.3656 34.1446 36.7558 34.0405 37.5677 34.7772C38.3796 35.514 38.311 36.8205 39.277 37.3811C40.3834 38.029 42.111 37.2463 43.1152 38.0106C43.5455 38.3384 43.7012 38.8638 44.0537 39.259C44.8748 40.178 46.4543 40.1336 47.7683 39.9482C48.5222 39.841 49.447 39.769 49.9048 40.3005C50.1246 40.5517 50.1872 40.8964 50.442 41.1231C50.8999 41.5336 51.7377 41.3252 52.1848 40.904C52.4715 40.6044 52.7169 40.2675 52.9143 39.9023C52.5175 40.0233 52.0948 40.0049 51.8125 39.7491Z" fill="#131735"/>
<path opacity="0.1" d="M54.593 38.0642C54.4948 38.1913 54.4036 38.3237 54.3199 38.4609C54.9059 38.0413 55.527 37.6492 55.965 37.1146C56.0787 36.9763 56.1808 36.8287 56.2702 36.6735C55.6613 37.1115 55.0265 37.5144 54.593 38.0642Z" fill="#131735"/>
</g>
<path d="M85.4251 68.3949L85.8829 112.355L88.0195 112.048L87.5616 68.3949H85.4251Z" fill="#3F3D56"/>
<path d="M98.2444 76.3598L98.7022 120.32L100.839 120.013L100.381 76.3598H98.2444Z" fill="#3F3D56"/>
<path d="M138.157 98.5663L138.148 97.7224V97.22L138.067 89.488L137.94 77.3998L137.919 76.3567H135.782L135.793 77.3615L135.86 83.836L135.889 86.639L135.913 88.909L135.953 92.8332L135.978 95.1476V95.3927L136.01 98.4346L136.037 101.117L136.211 100.924C136.491 100.61 136.764 100.292 137.032 99.9678L138.157 98.5663Z" fill="#3F3D56"/>
<path d="M95.8789 83.4822L94.658 85.3141L95.8789 93.6603L106.256 96.5108H123.044L133.116 97.122L137.914 93.8257L137.084 88.1646L133.421 83.4822H95.8789Z" fill="#04A777"/>
<path d="M94.658 85.3141L94.0476 90.4024C94.0476 90.4024 90.8428 100.378 116.634 99.7672C142.425 99.1561 138 97.1204 138 97.1204L137.847 91.2173C137.847 91.2173 138.746 94.0111 125.638 93.6327C112.53 93.2544 100.305 92.0321 100.305 92.0321C100.305 92.0321 95.7263 92.8455 94.658 85.3141Z" fill="#3F3D56"/>
<path d="M116.146 39.7062C114.675 40.3786 113.56 41.6821 112.814 43.1234C112.068 44.5648 111.648 46.147 111.235 47.7185C110.798 49.3758 110.36 51.0377 110.134 52.7364C109.731 55.7569 110.034 58.9321 111.416 61.6447C112.799 64.3574 115.354 66.5462 118.345 67.0685C119.5 67.2722 120.687 67.2309 121.855 67.1098C123.965 66.8856 126.044 66.4258 128.052 65.739C130.151 65.0267 132.335 63.93 133.269 61.9097C133.81 60.738 133.856 59.4023 133.83 58.1126C133.758 54.5975 133.229 51.1069 132.257 47.7293C131.975 46.749 131.646 45.761 131.048 44.9354C130.45 44.1098 129.632 43.5048 128.797 42.9442C125.228 40.5318 120.536 37.7028 116.146 39.7062Z" fill="#FBBEBE"/>
<path opacity="0.05" d="M116.146 39.7062C114.675 40.3786 113.56 41.6821 112.814 43.1234C112.068 44.5648 111.648 46.147 111.235 47.7185C110.798 49.3758 110.36 51.0377 110.134 52.7364C109.731 55.7569 110.034 58.9321 111.416 61.6447C112.799 64.3574 115.354 66.5462 118.345 67.0685C119.5 67.2722 120.687 67.2309 121.855 67.1098C123.965 66.8856 126.044 66.4258 128.052 65.739C130.151 65.0267 132.335 63.93 133.269 61.9097C133.81 60.738 133.856 59.4023 133.83 58.1126C133.758 54.5975 133.229 51.1069 132.257 47.7293C131.975 46.749 131.646 45.761 131.048 44.9354C130.45 44.1098 129.632 43.5048 128.797 42.9442C125.228 40.5318 120.536 37.7028 116.146 39.7062Z" fill="#131735"/>
<path d="M114.493 58.9857C114.919 59.5732 115.434 60.09 116.019 60.5174C117.472 61.5253 119.337 61.6616 121.101 61.7167C122.517 61.7596 124.141 61.6784 125.029 60.5695C125.429 60.0702 125.609 59.433 125.771 58.8126C126.769 55.0034 127.478 51.1238 127.892 47.207L131.933 47.2207C133.682 54.7368 133.539 62.55 133.386 70.2682L133.165 81.5231L130.561 81.2459C124.379 80.5888 118.188 79.9317 111.972 79.8184C108.33 79.7511 104.687 79.8718 101.057 80.1798L106.727 63.2607C107.462 61.0612 108.205 58.8326 108.378 56.5212C108.627 53.1683 107.69 49.6286 108.988 46.5269C109.092 46.2772 109.223 46.0184 109.46 45.8882C109.696 45.758 109.995 45.7901 110.267 45.8254C110.78 45.8943 112.347 45.8254 112.72 46.1547C113.269 46.6326 112.906 46.7046 112.712 47.475C112.366 48.8535 112.037 50.1294 112.042 51.5662C112.047 54.1747 112.852 56.9286 114.493 58.9857Z" fill="#04A777"/>
<path d="M138.157 98.5663C138.837 97.6596 139.479 96.7206 140.081 95.7496C139.776 95.094 139.44 94.4537 139.173 93.7844C138.764 92.7582 138.529 91.6706 138.297 90.5908C138.218 90.2232 138.139 89.8556 138.061 89.488C137.206 85.4887 136.403 81.4328 136.237 77.3784C136.222 77.0414 136.212 76.7044 136.208 76.3674C136.208 76.3184 136.208 76.2709 136.208 76.2143C136.208 75.8451 136.208 75.476 136.208 75.1084C136.226 74.1894 136.284 73.2627 136.39 72.3406C136.409 72.1599 136.432 71.9791 136.457 71.7984C136.457 71.7586 136.466 71.7203 136.472 71.6804L146.85 71.3006L147.722 71.2684C148.322 71.247 148.957 71.2133 149.452 70.8717C150.283 70.2988 150.381 69.124 150.367 68.1146C150.317 65.5634 150.029 63.0225 149.507 60.5251C149.113 58.6472 148.551 56.728 147.291 55.2851C146.256 54.0996 144.757 53.2373 144.219 51.7622C144.019 51.2139 143.968 50.6119 143.709 50.0881C143.449 49.5642 143.021 49.1798 142.616 48.7754C141.193 47.3599 140.012 45.7183 139.121 43.9169C138.503 42.667 137.833 41.2885 137.026 40.4246C136.986 40.3802 136.947 40.3388 136.905 40.299C136.219 39.6174 135.433 39.3187 134.502 39.7828C134.334 39.8671 134.175 39.9666 134.026 40.08C133.694 40.3344 133.39 40.624 133.121 40.9438C132.18 42.029 131.355 43.2097 130.659 44.4667C130.169 45.3518 129.749 46.2735 129.402 47.2238C129.127 47.9746 128.9 48.7419 128.722 49.5214C128.591 50.0988 128.487 50.6824 128.405 51.2675C128.1 53.467 128.1 55.7094 128.142 57.9365C128.188 59.9829 128.278 62.0338 128.463 64.0725C128.509 64.5657 128.56 65.0584 128.616 65.5506C128.727 66.5237 128.866 67.4938 129.031 68.4608C129.096 68.83 129.163 69.1991 129.238 69.5667C129.257 69.6647 129.276 69.7628 129.296 69.8592L129.305 69.9006C129.507 70.7551 129.663 71.6197 129.774 72.4907C129.786 72.6 129.795 72.7087 129.801 72.817C129.827 73.3176 129.823 73.8194 129.789 74.3196C129.754 74.9108 129.699 75.5005 129.672 76.0917C129.672 76.1959 129.672 76.2985 129.661 76.3981C129.653 76.6968 129.661 76.9954 129.661 77.2941C129.692 78.0087 129.777 78.7199 129.914 79.4216C130.172 80.727 130.616 81.9879 131.234 83.1651C131.292 83.2754 131.352 83.3842 131.411 83.4914C132.185 84.8791 133.162 86.1519 133.878 87.5718C134.495 88.8495 134.956 90.1975 135.251 91.5864C135.353 92.0449 135.449 92.5044 135.541 92.9649C135.683 93.7001 135.81 94.4415 135.939 95.1828C135.952 95.2563 135.965 95.336 135.979 95.4034C136.152 96.3867 136.333 97.3655 136.567 98.3259C136.702 98.8849 136.855 99.4363 137.034 99.9786L138.157 98.5663Z" fill="#464353"/>
<path d="M136.118 86.4935C136.118 86.6313 136.109 86.7692 136.103 86.9086C136.075 87.5807 136.014 88.2509 135.918 88.9166C135.792 89.8253 135.57 90.7181 135.257 91.5803C135.05 92.1472 134.786 92.6916 134.47 93.2054C134.189 93.6616 133.861 94.0863 133.49 94.4721C132.574 95.4279 131.256 95.7327 129.98 96.1355C129.393 96.3061 128.826 96.5387 128.287 96.8294C128.191 96.883 128.097 96.9412 128.005 97.0025L126.409 98.0639C125.911 98.3933 125.403 98.7348 125.061 99.2234C125.005 99.3066 124.954 99.393 124.909 99.4823C124.693 99.9321 124.535 100.408 124.439 100.898C123.608 104.368 122.777 107.842 122.207 111.365C122.169 111.598 122.133 111.832 122.093 112.067L122.079 112.14C122.072 112.123 122.064 112.106 122.055 112.09C117.971 114.568 113.736 116.804 109.373 118.595L108.425 110.63C108.326 109.983 108.294 109.327 108.327 108.672C108.417 107.642 108.836 106.664 108.949 105.637C109.056 104.63 108.866 103.615 108.404 102.716C108.224 102.366 107.998 102.023 107.957 101.633C107.915 101.242 108.14 100.885 108.53 100.846C108.836 100.505 108.86 100.041 108.77 99.5819C108.722 99.342 108.651 99.1075 108.556 98.8819C108.297 98.2416 107.969 97.5447 108.192 96.8907C108.251 96.7721 108.277 96.6399 108.268 96.5077C108.27 96.4996 108.27 96.4913 108.268 96.4832C108.216 96.3117 108.013 96.2366 107.908 96.0911C107.709 95.82 107.908 95.4509 108.03 95.1384C108.149 94.8026 108.217 94.4512 108.234 94.0953C108.251 93.8977 108.263 93.6986 108.285 93.5025C108.314 93.2372 108.362 92.9742 108.427 92.7152C108.797 91.248 109.689 89.967 110.934 89.1127C111.528 88.7114 112.188 88.4188 112.794 88.0405C113.415 87.6206 114.007 87.1601 114.568 86.662C115.912 85.5387 117.309 84.4798 118.76 83.4852C120.32 82.4159 121.936 81.4312 123.601 80.5352C123.957 80.3422 124.313 80.1543 124.669 79.9715C125.057 79.7673 125.447 79.5738 125.84 79.391C127.097 78.789 128.524 79.0142 129.914 79.4155C130.497 79.5825 131.073 79.7816 131.628 79.9623C132.171 80.1393 132.692 80.3745 133.185 80.6638C134.416 81.3899 135.434 82.4621 135.857 83.8161C135.858 83.8247 135.858 83.8335 135.857 83.8421C136.126 84.6907 136.142 85.6005 136.118 86.4935Z" fill="#F86D70"/>
<path opacity="0.1" d="M136.118 86.4935C136.118 86.6313 136.109 86.7692 136.103 86.9086C136.075 87.5807 136.014 88.2509 135.918 88.9166C135.792 89.8253 135.57 90.7181 135.257 91.5803C135.05 92.1472 134.786 92.6916 134.47 93.2054C134.189 93.6616 133.861 94.0863 133.49 94.4721C132.574 95.4279 131.256 95.7327 129.98 96.1355C129.393 96.3061 128.826 96.5387 128.287 96.8294C128.191 96.883 128.097 96.9412 128.005 97.0025L126.409 98.0639C125.911 98.3933 125.403 98.7348 125.061 99.2234C125.005 99.3066 124.954 99.393 124.909 99.4823C124.693 99.9321 124.535 100.408 124.439 100.898C123.608 104.368 122.777 107.842 122.207 111.365C122.169 111.598 122.133 111.832 122.093 112.067L122.079 112.14C122.072 112.123 122.064 112.106 122.055 112.09C117.971 114.568 113.736 116.804 109.373 118.595L108.425 110.63C108.326 109.983 108.294 109.327 108.327 108.672C108.417 107.642 108.836 106.664 108.949 105.637C109.056 104.63 108.866 103.615 108.404 102.716C108.224 102.366 107.998 102.023 107.957 101.633C107.915 101.242 108.14 100.885 108.53 100.846C108.836 100.505 108.86 100.041 108.77 99.5819C108.722 99.342 108.651 99.1075 108.556 98.8819C108.297 98.2416 107.969 97.5447 108.192 96.8907C108.251 96.7721 108.277 96.6399 108.268 96.5077C108.27 96.4996 108.27 96.4913 108.268 96.4832C108.216 96.3117 108.013 96.2366 107.908 96.0911C107.709 95.82 107.908 95.4509 108.03 95.1384C108.149 94.8026 108.217 94.4512 108.234 94.0953C108.251 93.8977 108.263 93.6986 108.285 93.5025C108.314 93.2372 108.362 92.9742 108.427 92.7152C108.797 91.248 109.689 89.967 110.934 89.1127C111.528 88.7114 112.188 88.4188 112.794 88.0405C113.415 87.6206 114.007 87.1601 114.568 86.662C115.912 85.5387 117.309 84.4798 118.76 83.4852C120.32 82.4159 121.936 81.4312 123.601 80.5352C123.957 80.3422 124.313 80.1543 124.669 79.9715C125.057 79.7673 125.447 79.5738 125.84 79.391C127.097 78.789 128.524 79.0142 129.914 79.4155C130.497 79.5825 131.073 79.7816 131.628 79.9623C132.171 80.1393 132.692 80.3745 133.185 80.6638C134.416 81.3899 135.434 82.4621 135.857 83.8161C135.858 83.8247 135.858 83.8335 135.857 83.8421C136.126 84.6907 136.142 85.6005 136.118 86.4935Z" fill="#131735"/>
<path d="M121.627 61.1224C121.612 61.0869 121.59 61.0548 121.561 61.0281C121.533 61.0015 121.5 60.9808 121.464 60.9674C121.428 60.9539 121.389 60.9479 121.35 60.9498C121.312 60.9517 121.274 60.9614 121.239 60.9784C121.204 60.9953 121.173 61.0191 121.148 61.0484C121.123 61.0777 121.103 61.1118 121.091 61.1487C121.08 61.1856 121.075 61.2246 121.079 61.2632C121.082 61.3019 121.093 61.3394 121.112 61.3736L120.959 61.4487L125.51 70.8104L126.332 70.4076L121.782 61.0397L121.627 61.1224Z" fill="#3F3D56"/>
<path d="M127.317 51.3165C132.711 51.3165 137.084 46.9276 137.084 41.5136C137.084 36.0996 132.711 31.7107 127.317 31.7107C121.923 31.7107 117.55 36.0996 117.55 41.5136C117.55 46.9276 121.923 51.3165 127.317 51.3165Z" fill="#FBBEBE"/>
<path d="M140.208 35.445C140.162 34.6658 140.047 33.8922 139.863 33.1337C139.289 30.6569 138.241 28.2185 136.435 26.4402C136.324 26.0054 136.191 25.5765 136.037 25.1551C136.034 25.1446 136.031 25.1344 136.026 25.1245C135.488 23.6399 134.709 22.2546 133.722 21.0241C133.15 20.3103 132.408 19.6057 131.495 19.5782C131.239 19.569 130.967 19.6134 130.732 19.4955C130.559 19.3833 130.414 19.2336 130.306 19.0574C129.855 18.4842 129.255 18.0458 128.573 17.7897C127.891 17.5335 127.152 17.4692 126.436 17.6038L126.342 17.6237C126.288 17.6344 126.235 17.6467 126.189 17.6605C126.143 17.6743 126.061 17.6972 125.997 17.7172C126.067 17.8336 126.136 17.9515 126.203 18.071C126.384 18.3947 126.552 18.7255 126.706 19.0635C126.835 19.3454 126.953 19.6318 127.062 19.9228C125.499 20.102 124.226 21.2156 123.064 22.2755L120.326 24.7691C120.321 24.7733 120.316 24.7779 120.312 24.7829L120.233 24.8595C120.213 24.8794 120.193 24.8993 120.175 24.9207C120.167 24.9271 120.161 24.9343 120.155 24.9422C120.132 24.9667 120.111 24.9927 120.089 25.0188C120.051 25.067 120.017 25.1182 119.987 25.1719C119.972 25.1949 119.959 25.219 119.947 25.2439C119.943 25.2513 119.939 25.259 119.937 25.2669C119.927 25.2878 119.918 25.3093 119.911 25.3312C119.91 25.3343 119.91 25.3374 119.911 25.3404C119.906 25.353 119.903 25.3658 119.9 25.3787C119.869 25.4865 119.878 25.602 119.926 25.7034L121.731 25.7233H121.943C121.953 25.9654 121.96 26.2089 121.969 26.4509C121.683 26.6661 121.408 26.8962 121.145 27.1402C120.859 27.4061 120.59 27.6906 120.341 27.9918C118.713 29.9662 117.863 32.5164 117.777 35.0836C117.777 35.1632 117.777 35.2367 117.777 35.3194C117.777 35.5538 117.777 35.7881 117.777 36.021C117.777 36.1741 117.791 36.3273 117.803 36.4805C117.804 36.68 117.856 36.8759 117.956 37.0487C117.969 37.068 117.983 37.0865 117.998 37.1039C118.09 37.2036 118.2 37.2847 118.322 37.3428L118.453 37.4071C118.519 37.4393 118.581 37.4699 118.642 37.5052C119.218 37.8314 119.558 38.461 120.082 38.8653C120.112 38.8883 120.143 38.9113 120.173 38.9312L120.242 38.9771L120.285 39.0047L120.343 39.0384C120.381 39.0614 120.42 39.0824 120.46 39.1012L120.533 39.138H120.545C120.607 39.1655 120.668 39.1916 120.73 39.2146L120.817 39.2452L120.843 39.2544C120.867 39.262 120.893 39.2712 120.919 39.2774C120.971 39.2927 121.022 39.3065 121.072 39.3187L121.225 39.3524C121.284 39.3631 121.345 39.3739 121.406 39.3815L121.496 39.3938L121.588 39.403C121.733 39.4162 121.88 39.4239 122.027 39.4259C122.49 39.4231 122.953 39.3908 123.412 39.3294L127.306 38.8699C128.19 38.7673 129.092 38.6647 129.963 38.8454C130.702 38.9986 131.382 39.3509 132.1 39.6005C132.261 39.6572 132.423 39.7093 132.587 39.7537C132.646 39.7706 132.707 39.7889 132.768 39.8043L132.852 39.8257L133.047 39.8732C133.118 39.89 133.188 39.9069 133.258 39.9207C133.357 39.9421 133.455 39.9605 133.554 39.9789C133.621 39.9927 133.69 40.0034 133.759 40.0156H133.772L133.968 40.0463H134.015L134.16 40.0662C134.23 40.0769 134.3 40.0861 134.372 40.0937C134.528 40.1131 134.683 40.13 134.839 40.1443C135.091 40.1688 135.344 40.1872 135.602 40.2025L135.855 40.2178L136.109 40.2301L136.872 40.2638H136.905H137.012C137.329 40.286 137.648 40.2695 137.961 40.2148C138.016 40.204 138.07 40.1918 138.123 40.1765C138.177 40.1611 138.221 40.1458 138.276 40.1274C138.848 39.9069 139.266 39.3999 139.556 38.8577C139.617 38.7428 139.674 38.6279 139.726 38.51C139.778 38.392 139.825 38.2726 139.868 38.1531C139.921 37.9999 139.967 37.8544 140.006 37.7012C140.019 37.6599 140.029 37.6185 140.039 37.5756C140.048 37.5327 140.069 37.4485 140.081 37.3842C140.119 37.208 140.148 37.0303 140.17 36.8511C140.17 36.7945 140.183 36.7363 140.19 36.6796C140.203 36.5264 140.214 36.384 140.22 36.2339C140.22 36.1205 140.22 36.0056 140.22 35.8908C140.219 35.7667 140.208 35.6028 140.208 35.445ZM136.295 26.3008C136.171 26.1844 136.045 26.0726 135.916 25.9669C136.059 26.0572 136.186 26.17 136.293 26.3008H136.295Z" fill="#464353"/>
<path d="M108.572 40.9745C107.422 40.832 106.282 40.3266 105.149 40.5747C104.439 40.7279 103.828 41.1705 103.261 41.6254C101.148 43.325 99.3516 45.3862 97.9544 47.7139C97.7175 48.062 97.5511 48.4533 97.4646 48.8658C97.3913 49.3437 97.521 49.8292 97.6752 50.2872C98.719 53.3828 100.952 55.9683 101.968 59.073C103.036 62.3386 102.666 65.9075 101.878 69.2527C100.902 73.3824 99.3155 77.3423 97.1715 81.0008C96.8805 81.5448 96.5158 82.0458 96.088 82.4896C95.5325 83.0257 94.7862 83.4086 94.4566 84.1102C94.304 84.4165 94.2597 84.7657 94.1514 85.0935C93.8462 86.0125 93.1075 86.7998 93.0358 87.7694C92.9824 88.5092 93.3318 89.2092 93.544 89.9138C93.9017 91.1243 93.8637 92.4179 93.4356 93.6052C92.6619 95.7342 90.6383 97.6703 91.2258 99.8591C92.5367 99.4808 93.9896 98.9891 94.6077 97.7683C94.8259 97.3364 94.9343 96.8217 95.3021 96.5062C96.0361 95.8797 97.286 96.4465 98.0658 95.8705C98.6549 95.4325 98.6763 94.5349 98.4138 93.8456C98.1513 93.1564 97.6996 92.5498 97.4981 91.8406C97.1471 90.5617 97.7087 89.2092 97.605 87.8873C97.5561 87.2747 97.3684 86.688 97.3547 86.0784C97.3287 84.8944 97.9819 83.7808 98.8503 82.9767C99.7186 82.1726 100.791 81.6395 101.848 81.1142L105.84 79.123C107.288 78.4031 108.875 77.5254 109.35 75.9753C109.53 75.3948 109.532 74.776 109.541 74.1694C109.676 64.9011 111.99 55.8197 114.29 46.8424C114.647 45.4516 115.01 44.0547 115.541 42.7191C116.072 41.3834 117.112 40.3112 117.641 39.0706C114.569 38.7091 111.763 41.3758 108.572 40.9745Z" fill="#464353"/>
<path d="M130.58 99.1193C130.932 101.264 131.147 103.454 131.315 105.634C128.568 107.919 125.611 109.907 122.606 111.751C122.435 111.857 122.262 111.961 122.09 112.058L122.076 112.131C122.069 112.114 122.061 112.097 122.052 112.081C121.819 111.575 121.411 111.171 120.904 110.944C119.778 108.57 118.653 106.196 117.528 103.822C116.918 102.54 116.307 101.245 116.002 99.8622C116.002 99.833 115.989 99.8024 115.984 99.7733C115.752 98.7011 115.699 97.5876 115.544 96.5016C115.466 95.8796 115.327 95.267 115.128 94.6728C114.945 94.1443 114.693 93.6312 114.47 93.115C114.195 92.4778 113.965 91.833 113.954 91.1453C113.954 90.9262 113.968 90.6857 113.861 90.5019C113.747 90.3437 113.606 90.2068 113.444 90.0976C113.243 89.9183 113.09 89.6905 113.001 89.4357C112.911 89.1809 112.887 88.9074 112.932 88.6409C112.016 88.6884 111.5 89.6764 111.132 90.5142C110.798 91.3336 110.359 92.106 109.826 92.8117C109.438 93.3159 108.944 93.7284 108.379 94.0203C108.329 94.0448 108.279 94.0693 108.227 94.0907C106.952 94.6544 105.464 94.4553 104.083 94.201C102.876 93.9789 101.628 93.7032 100.657 92.9496L100.553 92.8669C100.266 92.6272 100.01 92.3524 99.7904 92.049C98.9769 90.9339 98.6168 89.465 98.4169 88.0665C98.3985 87.9348 98.3802 87.8031 98.3635 87.6714C98.2247 86.6832 98.1864 85.6835 98.249 84.6876C98.2673 84.4425 98.2932 84.1975 98.3253 83.9539C98.3467 83.8008 98.3696 83.6353 98.3955 83.476C98.3948 83.4715 98.3948 83.4668 98.3955 83.4623C98.4352 83.2095 98.4779 82.9553 98.5206 82.6964C98.6733 81.8279 98.8259 80.9365 99.2837 80.189C99.585 79.7239 99.9651 79.3154 100.407 78.982C100.572 78.8518 100.741 78.7278 100.912 78.6083C101.19 78.4153 101.475 78.2315 101.765 78.0584C102.495 77.6202 103.261 77.2461 104.054 76.9403C104.244 76.8668 104.436 76.7978 104.628 76.732C105.376 76.4651 106.18 76.4012 106.96 76.5466C107.651 76.647 108.35 76.688 109.048 76.6692C110.838 76.6339 112.636 76.2908 114.423 76.0687C116.904 75.7624 119.57 75.7256 121.734 76.9878C121.838 77.0475 121.939 77.1103 122.04 77.1762C123.108 77.8777 123.969 78.861 124.663 79.9593C124.816 80.1905 124.948 80.428 125.08 80.6684C125.382 81.2204 125.656 81.7879 125.899 82.3686C126.043 82.6538 126.121 82.968 126.126 83.2876C126.123 83.3484 126.115 83.4088 126.102 83.4684C126.061 83.6859 125.978 83.8973 125.949 84.1178C125.853 84.9526 126.56 85.6495 126.824 86.4445C126.995 86.9622 126.977 87.5167 127.073 88.0619C127.212 88.8278 127.585 89.5171 127.921 90.2063C128.452 91.3158 128.906 92.4607 129.279 93.6327C129.545 94.4491 129.772 95.2778 129.972 96.1141C130.037 96.3826 130.099 96.6517 130.157 96.9213C130.323 97.6626 130.459 98.3887 130.58 99.1193Z" fill="#F86D70"/>
<path d="M146.851 76.4364V77.5085L146.654 77.5055L146.434 77.5024L143.98 77.4718L137.934 77.3921L136.237 77.3707L135.797 77.3646L133.25 77.3324L129.661 77.2849L122.046 77.1854L108.831 77.0138L104.062 76.9525L102.148 76.928L100.387 76.9051L99.2898 76.8897L98.2505 76.876L90.5452 76.7764L88.4086 76.7488L87.9431 76.7427L87.641 75.96L85.4449 70.2759L85.0435 69.2374L85.3488 68.012L86.7223 68.931L87.5677 69.0367L101.487 70.7737L104.1 71.0999L109.64 71.7922L115.067 72.4693L117.194 72.7342L129.783 74.3058L133.301 74.7454L136.213 75.1084L146.566 76.4011L146.851 76.4364Z" fill="#3F3D56"/>
<path d="M85.3488 68.012L88.0958 75.211L146.851 76.4364V68.6247L85.3488 68.012Z" fill="#504F60"/>
<path d="M88.401 75.9768L88.8588 119.937L90.9954 119.63L90.5375 75.9768H88.401Z" fill="#3F3D56"/>
<path d="M146.654 77.5039H146.434C146.079 80.2446 145.49 82.9498 144.675 85.5898L143.98 77.4718L143.951 77.1256L146.518 76.8285L146.604 76.8193L146.654 77.5039Z" fill="#3F3D56"/>
<path d="M138.305 72.3008L115.947 72.7603L109.004 70.4627L127.622 69.3905L138.305 72.3008Z" fill="white"/>
<path d="M110.259 63.3679C110.022 63.4592 109.812 63.6094 109.649 63.8045C109.521 64.0158 109.444 64.2537 109.422 64.4998L109.046 66.7469C108.989 66.9524 108.999 67.171 109.075 67.3703C109.173 67.5586 109.457 67.6567 109.599 67.5004C109.58 67.94 109.619 68.4087 109.873 68.7672C110.128 69.1256 110.662 69.314 111.023 69.0643C111.079 69.1567 111.155 69.2356 111.245 69.2957C111.335 69.3557 111.436 69.3954 111.543 69.412C111.65 69.4286 111.759 69.4217 111.863 69.3918C111.966 69.362 112.063 69.3098 112.144 69.2389C111.928 69.3124 111.912 69.6448 112.066 69.8133C112.239 69.9662 112.459 70.0544 112.689 70.063C115.371 70.4424 118.105 70.0971 120.61 69.0628C120.846 68.9648 120.223 66.0377 120.161 65.7375C120.008 65.0314 119.932 64.169 119.338 63.6942C117.919 62.5577 115.398 62.334 113.669 62.4688C112.487 62.5585 111.332 62.8632 110.259 63.3679Z" fill="#FBBEBE"/>
<path opacity="0.1" d="M133.008 63.708C127.488 63.8136 121.853 63.904 116.585 62.2452C117.088 64.2024 117.054 66.2599 116.484 68.1989L142.294 70.3433C143.388 70.4336 147.925 70.9483 148.992 70.6894C150.059 70.4306 140.042 67.1191 140.446 66.0943C141.559 63.2714 145.285 61.6172 142.601 61.5115C139.213 61.3767 136.422 63.6436 133.008 63.708Z" fill="#131735"/>
<path d="M133.16 64.0143C127.64 64.12 122.006 64.2103 116.738 62.5515C117.241 64.5087 117.206 66.5663 116.637 68.5052L142.447 70.6496C143.541 70.74 148.078 71.2623 149.145 70.9958C150.212 70.7292 149.961 69.4166 150.366 68.3919C151.478 65.569 145.438 61.9235 142.753 61.8178C139.365 61.683 136.574 63.95 133.16 64.0143Z" fill="#464353"/>
<path d="M124.384 64.4401C124.621 64.5312 124.831 64.6814 124.994 64.8766C125.122 65.0881 125.2 65.3259 125.223 65.572L125.598 67.819C125.655 68.0247 125.645 68.243 125.569 68.4424C125.472 68.6308 125.186 68.7289 125.046 68.5726C125.063 69.0122 125.026 69.4809 124.771 69.8393C124.516 70.1978 123.982 70.3862 123.621 70.1365C123.564 70.2289 123.488 70.3078 123.398 70.3678C123.308 70.4279 123.207 70.4676 123.1 70.4842C122.993 70.5008 122.884 70.4939 122.78 70.464C122.677 70.4341 122.581 70.382 122.499 70.3111C122.716 70.3846 122.732 70.717 122.578 70.8855C122.405 71.0384 122.185 71.1266 121.954 71.1352C119.273 71.5146 116.539 71.1693 114.035 70.135C113.799 70.0369 114.42 67.1099 114.484 66.8096C114.636 66.1035 114.713 65.2412 115.306 64.7663C116.724 63.6298 119.247 63.4062 120.976 63.541C122.157 63.6309 123.311 63.9355 124.384 64.4401Z" fill="#FBBEBE"/>
<path d="M87.9096 59.5616C87.4029 60.2172 86.8947 60.8865 86.5681 61.6509C85.944 63.109 86.0355 64.7602 86.1393 66.344C86.1683 66.8035 86.2049 67.2722 86.4445 67.6536C86.6517 67.9417 86.9249 68.1755 87.2412 68.3352C88.5628 69.0888 90.1102 69.3139 91.6211 69.4824C93.9347 69.7398 96.2564 69.8965 98.5863 69.9527C104.358 70.0936 110.218 69.6203 115.84 70.9329C115.145 69.8715 115.146 68.4669 115.535 67.2569C115.924 66.0468 116.674 64.993 117.408 63.9561C114.835 63.1381 112.076 64.4156 109.38 64.2884C106.614 64.1582 104.053 62.553 101.283 62.5546C100.688 62.5546 100.082 62.6296 99.5035 62.4856C98.9251 62.3417 98.365 61.9036 98.3116 61.3078C99.0502 61.4747 99.7507 60.8406 100.056 60.1452C100.361 59.4498 100.416 58.6641 100.712 57.9641C101.449 56.2225 103.441 55.4153 104.68 53.9817C104.875 53.755 105.06 53.4869 105.054 53.1867C105.025 52.9324 104.918 52.6933 104.749 52.502C103.719 51.1235 102.167 50.3577 100.877 49.2855C100.428 48.9117 99.5233 47.5026 99.0197 47.3724C98.0857 47.1319 97.2937 48.4859 96.6863 49.1461C93.6198 52.4903 90.6942 55.9621 87.9096 59.5616Z" fill="#464353"/>
<path opacity="0.07" d="M118.597 59.1726C118.983 59.4605 119.327 59.8025 119.618 60.1881C119.762 60.3818 119.865 60.6035 119.92 60.8392C119.975 61.0749 119.981 61.3195 119.937 61.5574C119.889 61.1135 119.988 60.6662 120.217 60.2837C120.447 59.9013 120.795 59.6047 121.208 59.4391L118.597 59.1726Z" fill="#131735"/>
<g opacity="0.1">
<path opacity="0.1" d="M127.06 19.0053C126.881 18.5266 126.674 18.0586 126.441 17.6038C126.29 17.6329 126.141 17.6713 125.995 17.7187C126.257 18.1552 126.493 18.6068 126.702 19.0712C126.819 19.0406 126.938 19.0191 127.06 19.0053Z" fill="#131735"/>
<path opacity="0.1" d="M135.915 25.0448C135.956 25.0788 135.996 25.1174 136.036 25.1529C136.033 25.1429 136.03 25.1331 136.026 25.1236C135.991 25.0978 135.954 25.0716 135.915 25.0448Z" fill="#131735"/>
<path opacity="0.1" d="M121.728 25.7188C121.808 25.656 121.881 25.5901 121.966 25.5288L121.942 24.8013L120.312 24.7844C120.048 25.028 119.767 25.3772 119.923 25.7034L121.728 25.7188Z" fill="#131735"/>
<path opacity="0.1" d="M139.547 37.9662C139.257 38.5084 138.839 39.017 138.267 39.236C137.826 39.4045 137.34 39.3892 136.869 39.3677C135.26 39.3019 133.624 39.2299 132.104 38.6953C131.393 38.4441 130.712 38.0934 129.968 37.9387C129.096 37.7579 128.194 37.8605 127.311 37.9647L123.416 38.4242C122.267 38.559 120.987 38.6601 120.069 37.9524C119.544 37.5481 119.206 36.9185 118.63 36.5938C118.388 36.456 118.099 36.3671 117.942 36.1343C117.843 35.9614 117.79 35.7656 117.789 35.5661C117.777 35.4052 117.769 35.2444 117.763 35.0836C117.747 35.5509 117.755 36.0187 117.789 36.4851C117.79 36.6846 117.843 36.8805 117.942 37.0533C118.095 37.2846 118.388 37.3735 118.63 37.5128C119.206 37.8376 119.546 38.4671 120.069 38.8715C120.985 39.5791 122.267 39.4841 123.416 39.3432L127.311 38.8837C128.194 38.7796 129.096 38.6769 129.968 38.8577C130.706 39.0108 131.387 39.3631 132.104 39.6143C133.63 40.1489 135.26 40.227 136.869 40.2868C137.34 40.3067 137.826 40.3235 138.267 40.155C138.839 39.936 139.257 39.4275 139.547 38.8852C140.109 37.836 140.266 36.6459 140.206 35.4466C140.174 36.3249 139.949 37.1851 139.547 37.9662Z" fill="#131735"/>
</g>
<path opacity="0.1" d="M127.016 19.9902L129.153 21.9814C129.153 21.9814 127.321 21.2156 127.016 19.9902Z" fill="#131735"/>
</g>
<defs>
<clipPath id="clip0">
<rect width="150" height="123" fill="white" transform="translate(0.5)"/>
</clipPath>
</defs>
</svg>
