<svg width="179" height="70" viewBox="0 0 179 70" fill="none" xmlns="http://www.w3.org/2000/svg">
<path d="M1.98438 28.9766C1.86719 29 1.76172 28.918 1.66797 28.7305C1.57422 28.5195 1.46875 28.3203 1.35156 28.1328H1.73828C1.57422 27.6172 1.52734 27.1484 1.59766 26.7266C1.69141 26.2812 1.79688 25.8594 1.91406 25.4609C2.03125 25.0391 2.125 24.6406 2.19531 24.2656C2.28906 23.8672 2.25391 23.457 2.08984 23.0352C2.20703 23.1055 2.28906 23.082 2.33594 22.9648C2.40625 22.8242 2.45312 22.6602 2.47656 22.4727C2.52344 22.2617 2.53516 22.0508 2.51172 21.8398C2.51172 21.6055 2.5 21.418 2.47656 21.2773C2.78125 20.5508 3.01562 19.8008 3.17969 19.0273C3.36719 18.2539 3.53125 17.4922 3.67188 16.7422C3.8125 15.9688 3.96484 15.2305 4.12891 14.5273C4.31641 13.8008 4.55078 13.1211 4.83203 12.4883C5.16016 12.4414 5.5 12.4883 5.85156 12.6289C6.22656 12.7461 6.47266 12.8984 6.58984 13.0859C7.31641 12.5234 7.96094 11.8437 8.52344 11.0469C9.08594 10.25 9.64844 9.47656 10.2109 8.72656C10.7969 7.95312 11.4531 7.27344 12.1797 6.6875C12.9062 6.10156 13.8086 5.75 14.8867 5.63281C15.4492 6.03125 16.082 6.46484 16.7852 6.93359C17.4883 7.37891 18.0625 7.94141 18.5078 8.62109C18.6953 8.73828 18.8711 8.86719 19.0352 9.00781C19.2227 9.125 19.4102 9.24219 19.5977 9.35938V9.88672C19.9258 10.1914 20.1953 10.5547 20.4062 10.9766C20.6406 11.375 20.8398 11.8086 21.0039 12.2773C21.1914 12.7227 21.3672 13.1797 21.5312 13.6484C21.6953 14.1172 21.8828 14.5508 22.0938 14.9492C22.0469 15.0898 22.0234 15.2188 22.0234 15.3359C22.0469 15.4297 22.0703 15.5352 22.0938 15.6523C22.1406 15.7461 22.1758 15.8633 22.1992 16.0039C22.2227 16.1211 22.2344 16.2734 22.2344 16.4609C22.1406 17.7031 21.7305 18.7109 21.0039 19.4844C20.3008 20.2344 19.4336 20.8555 18.4023 21.3477C17.3945 21.8164 16.3164 22.2266 15.168 22.5781C14.0195 22.9062 12.9766 23.2695 12.0391 23.668C12.0391 23.7617 12.0859 23.8086 12.1797 23.8086C12.2969 23.8086 12.332 23.8789 12.2852 24.0195C12.9883 24.4414 13.5273 24.7812 13.9023 25.0391C14.3008 25.2969 14.6641 25.5195 14.9922 25.707C15.3438 25.8711 15.7188 26.0117 16.1172 26.1289C16.5391 26.2461 17.1133 26.3867 17.8398 26.5508C18.5664 26.7148 19.1289 26.8555 19.5273 26.9727C19.9492 27.0664 20.3242 27.1484 20.6523 27.2188C20.9805 27.2656 21.332 27.3125 21.707 27.3594C22.082 27.4062 22.5859 27.4648 23.2188 27.5352C23.4766 27.793 23.6875 28.0977 23.8516 28.4492C24.0156 28.8008 24.1328 29.1523 24.2031 29.5039C24.2734 29.8555 24.2852 30.1953 24.2383 30.5234C24.2148 30.8281 24.1211 31.0742 23.957 31.2617C23.9805 31.3555 24.0391 31.4023 24.1328 31.4023C24.25 31.3789 24.3672 31.3789 24.4844 31.4023C24.3203 31.5195 24.1797 31.6602 24.0625 31.8242C23.9453 31.9883 23.8281 32.1523 23.7109 32.3164C23.5938 32.4805 23.4531 32.6328 23.2891 32.7734C23.1484 32.9141 22.9609 32.9961 22.7266 33.0195C21.8828 33.3477 20.8047 33.3594 19.4922 33.0547C18.1797 32.75 16.5039 32.2109 14.4648 31.4375C13.457 31.0625 12.6367 30.7227 12.0039 30.418C11.3711 30.1133 10.8203 29.8203 10.3516 29.5391C9.88281 29.2344 9.44922 28.918 9.05078 28.5898C8.65234 28.2383 8.19531 27.8281 7.67969 27.3594C7.60938 27.3828 7.5625 27.4297 7.53906 27.5C7.53906 27.5703 7.50391 27.6172 7.43359 27.6406C7.31641 28.5781 7.12891 29.3398 6.87109 29.9258C6.63672 30.5117 6.28516 31.1094 5.81641 31.7188C5.44141 31.6484 5.18359 31.6836 5.04297 31.8242C4.92578 31.9648 4.77344 32.0938 4.58594 32.2109C4.35156 32.2578 4.17578 32.2461 4.05859 32.1758C3.94141 32.1289 3.83594 32.0703 3.74219 32C3.64844 31.9297 3.54297 31.8594 3.42578 31.7891C3.30859 31.7188 3.12109 31.6953 2.86328 31.7188C2.79297 31.5078 2.72266 31.3086 2.65234 31.1211C2.58203 30.9102 2.39453 30.8164 2.08984 30.8398C2.16016 30.6289 2.18359 30.4531 2.16016 30.3125C2.13672 30.1484 2.10156 30.0078 2.05469 29.8906C2.00781 29.75 1.96094 29.6094 1.91406 29.4688C1.89062 29.3281 1.91406 29.1641 1.98438 28.9766ZM13.7266 12.9102C13.4219 13.3555 13.082 13.7656 12.707 14.1406C12.332 14.4922 11.957 14.8672 11.582 15.2656C11.2305 15.6406 10.9141 16.0625 10.6328 16.5312C10.3516 16.9766 10.1523 17.5156 10.0352 18.1484C11.0195 18.0312 12.0508 17.7617 13.1289 17.3398C14.207 16.8945 15.2266 16.4727 16.1875 16.0742C16.0703 15.207 15.7656 14.5156 15.2734 14C14.7812 13.4609 14.2656 13.0977 13.7266 12.9102ZM43.8906 12.207C43.9141 12.3711 43.9141 12.5 43.8906 12.5938C43.8906 12.6641 43.8789 12.7344 43.8555 12.8047C43.8555 12.875 43.8555 12.957 43.8555 13.0508C43.8555 13.1211 43.8789 13.2383 43.9258 13.4023C43.4336 14.1992 42.8594 14.75 42.2031 15.0547C41.5703 15.3359 40.8789 15.5469 40.1289 15.6875C39.3789 15.8047 38.6055 15.9336 37.8086 16.0742C37.0352 16.2148 36.2617 16.5195 35.4883 16.9883C35.1836 16.8711 34.9023 16.8711 34.6445 16.9883C34.4102 17.1055 34.0586 17.1406 33.5898 17.0938C33.4492 17.2344 33.2734 17.3398 33.0625 17.4102C32.8516 17.457 32.6406 17.5156 32.4297 17.5859C32.5234 17.7969 32.5586 18.0195 32.5352 18.2539C32.5352 18.4648 32.5703 18.6406 32.6406 18.7812C33.4609 18.8516 34.3633 18.8398 35.3477 18.7461C36.3555 18.6523 37.3398 18.5938 38.3008 18.5703C38.3242 18.6875 38.3125 18.7695 38.2656 18.8164C38.2188 18.8398 38.207 18.8984 38.2305 18.9922C38.3945 19.1094 38.5586 19.2617 38.7227 19.4492C38.8867 19.6133 39.0508 19.7773 39.2148 19.9414C39.3789 20.1055 39.543 20.2461 39.707 20.3633C39.8945 20.457 40.1055 20.4922 40.3398 20.4688C40.4336 20.6562 40.4922 20.8672 40.5156 21.1016C40.5625 21.3125 40.5391 21.5352 40.4453 21.7695C40.0703 22.0273 39.6953 22.2969 39.3203 22.5781C38.9453 22.8359 38.5469 23.0703 38.125 23.2812C37.7266 23.4922 37.293 23.668 36.8242 23.8086C36.3789 23.9258 35.875 23.9727 35.3125 23.9492C35.1953 23.9492 35.1016 23.9492 35.0312 23.9492C34.9844 23.9492 34.9141 23.9141 34.8203 23.8438C34.6328 23.9609 34.3633 23.9961 34.0117 23.9492C33.6836 23.9023 33.4258 23.9375 33.2383 24.0547C32.9805 23.9375 32.6641 23.8906 32.2891 23.9141C31.9375 23.9141 31.6211 23.8672 31.3398 23.7734C30.9648 24.2656 30.625 24.793 30.3203 25.3555C30.0156 25.918 29.7461 26.5156 29.5117 27.1484C30.3086 27.2656 30.9648 27.3125 31.4805 27.2891C32.0195 27.2656 32.5234 27.2305 32.9922 27.1836C33.4609 27.1133 33.9414 27.0547 34.4336 27.0078C34.9258 26.9375 35.5469 26.9141 36.2969 26.9375C36.7656 26.6797 37.3164 26.5156 37.9492 26.4453C38.6055 26.3516 39.2031 26.2109 39.7422 26.0234C39.9297 26.0938 40.0938 26.2227 40.2344 26.4102C40.375 26.5742 40.5039 26.7383 40.6211 26.9023C40.7617 27.043 40.9023 27.1719 41.043 27.2891C41.1836 27.4062 41.3594 27.4531 41.5703 27.4297C41.6641 27.5234 41.7227 27.6406 41.7461 27.7812C41.793 27.8984 41.8281 28.0156 41.8516 28.1328C41.875 28.25 41.9102 28.3555 41.957 28.4492C42.0273 28.5195 42.1328 28.543 42.2734 28.5195C41.9219 29.293 41.5117 29.8906 41.043 30.3125C40.5977 30.7109 40.082 31.0156 39.4961 31.2266C38.9102 31.4375 38.2539 31.6016 37.5273 31.7188C36.8242 31.8359 36.0391 31.9766 35.1719 32.1406C34.9609 32.1875 34.7852 32.1758 34.6445 32.1055C34.5039 32.0586 34.3398 32.0352 34.1523 32.0352C33.6133 32.1523 32.9688 32.2578 32.2188 32.3516C31.4688 32.4453 30.707 32.4805 29.9336 32.457C29.1602 32.4336 28.4219 32.3281 27.7188 32.1406C27.0156 31.9766 26.4414 31.6719 25.9961 31.2266C25.8086 31.0625 25.6797 30.875 25.6094 30.6641C25.5625 30.4297 25.4102 30.2539 25.1523 30.1367C25.1289 29.832 25.082 29.4922 25.0117 29.1172C24.9414 28.7422 24.8711 28.3555 24.8008 27.957C24.7305 27.5352 24.6719 27.125 24.625 26.7266C24.6016 26.3281 24.625 25.9648 24.6953 25.6367C24.7656 25.2852 24.9062 24.9688 25.1172 24.6875C25.3516 24.4062 25.4336 24.1016 25.3633 23.7734C25.4805 23.75 25.5508 23.6914 25.5742 23.5977C25.5977 23.4805 25.6914 23.4336 25.8555 23.457C25.9961 23.0352 26.1484 22.6367 26.3125 22.2617C26.4766 21.8867 26.6406 21.5234 26.8047 21.1719C26.9922 20.8203 27.168 20.4688 27.332 20.1172C27.5195 19.7422 27.6953 19.332 27.8594 18.8867C27.5312 18.582 27.2852 18.2539 27.1211 17.9023C26.9805 17.5273 26.875 17.1641 26.8047 16.8125C26.7344 16.4375 26.6758 16.0625 26.6289 15.6875C26.582 15.2891 26.5 14.8906 26.3828 14.4922C26.6172 14.1406 26.8984 13.8594 27.2266 13.6484C27.5781 13.4141 27.9531 13.2266 28.3516 13.0859C28.75 12.9453 29.1836 12.8281 29.6523 12.7344C30.1211 12.6406 30.6133 12.5352 31.1289 12.418C32.0664 12.1133 32.8984 11.8789 33.625 11.7148C34.375 11.5508 35.1016 11.4219 35.8047 11.3281C36.5312 11.2109 37.2812 11.1055 38.0547 11.0117C38.8281 10.918 39.707 10.7773 40.6914 10.5898C40.9023 10.8008 41.1016 10.9062 41.2891 10.9062C41.3828 10.6953 41.4883 10.6367 41.6055 10.7305C41.7461 10.8008 41.8047 10.7305 41.7812 10.5195C42.0156 10.918 42.3086 11.2578 42.6602 11.5391C43.0352 11.7969 43.4453 12.0195 43.8906 12.207ZM60.3789 22.5078C60.3555 22.625 60.332 22.7305 60.3086 22.8242C60.2852 22.8945 60.2617 22.9648 60.2383 23.0352C60.2148 23.1055 60.2031 23.1992 60.2031 23.3164C60.2031 23.4102 60.2031 23.5391 60.2031 23.7031C59.5 24.9453 58.6094 25.9883 57.5312 26.832C56.4766 27.6758 55.3047 28.4258 54.0156 29.082C52.75 29.7148 51.4258 30.3008 50.043 30.8398C48.6602 31.3555 47.3125 31.918 46 32.5273C45.4375 32.3867 45.0039 32.1523 44.6992 31.8242C44.418 31.4961 44.1953 31.1211 44.0312 30.6992C43.8906 30.2539 43.7852 29.7734 43.7148 29.2578C43.668 28.7188 43.6211 28.168 43.5742 27.6055C43.6445 27.3477 43.7383 27.1367 43.8555 26.9727C43.9961 26.7852 44.0664 26.5273 44.0664 26.1992C44.2539 25.5898 44.4414 24.9922 44.6289 24.4062C44.8164 23.8203 44.9336 23.2227 44.9805 22.6133C45.0508 22.4258 45.1797 22.2969 45.3672 22.2266C45.4844 21.1016 45.4844 19.9648 45.3672 18.8164C45.2734 17.6445 45.0859 16.5547 44.8047 15.5469C44.8281 15.3125 44.8516 15.1484 44.875 15.0547C44.9219 14.9375 44.9219 14.8555 44.875 14.8086C44.8516 14.6211 44.9102 14.5273 45.0508 14.5273C45.2148 14.5273 45.3789 14.5273 45.543 14.5273C45.543 14.1758 45.4727 13.8242 45.332 13.4727C45.2148 13.1211 45.0977 12.7227 44.9805 12.2773C45.1445 11.9258 45.25 11.5859 45.2969 11.2578C45.3438 10.9062 45.4492 10.6016 45.6133 10.3438C46.8789 10.7422 48.0859 11.2227 49.2344 11.7852C50.4062 12.3477 51.5547 12.7578 52.6797 13.0156C53.5234 13.625 54.3906 14.2344 55.2812 14.8438C56.1719 15.4297 56.9805 16.0859 57.707 16.8125C58.4336 17.5156 59.043 18.3242 59.5352 19.2383C60.0273 20.1523 60.3086 21.2422 60.3789 22.5078ZM52.0469 24.4414C52.5391 24.2539 53.0195 24.0547 53.4883 23.8438C53.9805 23.6328 54.4258 23.3984 54.8242 23.1406C55.2461 22.8594 55.6211 22.543 55.9492 22.1914C56.2773 21.8398 56.5469 21.418 56.7578 20.9258C56.6172 20.6445 56.4297 20.3984 56.1953 20.1875C55.9609 19.9531 55.7266 19.7422 55.4922 19.5547C55.2578 19.3438 55.0234 19.1328 54.7891 18.9219C54.5781 18.7109 54.4023 18.4531 54.2617 18.1484C53.957 18.1016 53.6875 18.0195 53.4531 17.9023C53.2188 17.7617 52.9844 17.6328 52.75 17.5156C52.5391 17.375 52.3047 17.2461 52.0469 17.1289C51.8125 17.0117 51.5312 16.9414 51.2031 16.918C50.6875 16.6602 50.2188 16.4727 49.7969 16.3555C49.3984 16.2383 49.0938 16.0859 48.8828 15.8984C48.7188 15.8984 48.5898 15.9336 48.4961 16.0039C48.7305 16.8945 48.9062 17.7383 49.0234 18.5352C49.1406 19.3086 49.1992 20.0938 49.1992 20.8906C49.2227 21.6641 49.1875 22.4609 49.0938 23.2812C49 24.1016 48.8711 24.9922 48.707 25.9531C48.9414 25.9297 49.1523 25.8828 49.3398 25.8125C49.5508 25.7188 49.75 25.625 49.9375 25.5312C50.1484 25.4375 50.3594 25.3555 50.5703 25.2852C50.8047 25.1914 51.0742 25.1328 51.3789 25.1094C51.4492 24.9688 51.543 24.8516 51.6602 24.7578C51.8008 24.6641 51.9297 24.5586 52.0469 24.4414ZM79.5391 29.0469C79.3984 29.4453 79.1875 29.8555 78.9062 30.2773C78.6484 30.6758 78.332 31.0391 77.957 31.3672C77.6055 31.6719 77.207 31.9297 76.7617 32.1406C76.3164 32.3516 75.8477 32.4688 75.3555 32.4922C75.0508 32.4219 74.8398 32.3398 74.7227 32.2461C74.6289 32.1758 74.5234 32.1055 74.4062 32.0352C74.3359 31.9883 74.2656 31.9531 74.1953 31.9297C74.1484 31.8828 74.1016 31.8477 74.0547 31.8242L73.6328 31.6484L73.7734 31.1914C73.8203 31.0039 73.8086 30.8633 73.7383 30.7695C73.668 30.6523 73.5273 30.5 73.3164 30.3125C73.2461 30.2422 73.1758 30.1719 73.1055 30.1016C73.0352 30.0312 72.9766 29.9609 72.9297 29.8906L72.332 29.2227L73.2812 28.9766C73.8672 28.8125 74.2539 28.6016 74.4414 28.3438C74.6523 28.0859 74.7344 27.6523 74.6875 27.043C74.2188 26.9492 73.8203 26.9375 73.4922 27.0078C73.1875 27.0781 72.8711 27.1602 72.543 27.2539C72.1211 27.3711 71.6875 27.4766 71.2422 27.5703C70.8203 27.6406 70.3516 27.6758 69.8359 27.6758C69.6484 27.6758 69.4727 27.6758 69.3086 27.6758C69.1445 27.6523 68.9688 27.6289 68.7812 27.6055L68.4297 27.5352C68.3828 27.2773 68.3359 27.1367 68.2891 27.1133C68.2422 27.0664 68.1953 27.0195 68.1484 26.9727C68.0312 26.8555 67.9023 26.7031 67.7617 26.5156C67.6445 26.3047 67.6211 26.0469 67.6914 25.7422C67.5742 25.5312 67.5039 25.3203 67.4805 25.1094C67.3398 25.3906 67.2344 25.6836 67.1641 25.9883L67.0234 26.3398L66.6719 26.4102C66.625 26.4336 66.5898 26.4922 66.5664 26.5859C66.543 26.6562 66.5312 26.7148 66.5312 26.7617L66.3555 27.3594C66.3086 27.4062 66.2617 27.4531 66.2148 27.5C66.168 27.5234 66.1211 27.5586 66.0742 27.6055C66.0273 27.8164 65.9688 28.0273 65.8984 28.2383C65.8281 28.4492 65.7578 28.6484 65.6875 28.8359C65.5703 29.1406 65.4648 29.4453 65.3711 29.75C65.3008 30.0312 65.2773 30.3125 65.3008 30.5938L65.1602 30.9805C65.043 31.1211 64.9141 31.2383 64.7734 31.332C64.6328 31.4023 64.4922 31.4727 64.3516 31.543C64.3047 31.5898 64.2344 31.6367 64.1406 31.6836C64.0703 31.707 64.0117 31.7305 63.9648 31.7539L63.8594 32.1406L63.4375 32.2109C63.1797 32.2578 62.9922 32.293 62.875 32.3164C62.7812 32.3398 62.6641 32.3516 62.5234 32.3516L62.1719 32.3164C61.9141 32.1055 61.7148 31.9414 61.5742 31.8242C61.4336 31.6836 61.2695 31.5547 61.082 31.4375C60.8711 31.1562 60.7539 30.9453 60.7305 30.8047C60.707 30.6641 60.6836 30.5352 60.6602 30.418C60.6133 30.2773 60.5898 30.1602 60.5898 30.0664C60.5664 29.9727 60.5312 29.9023 60.4844 29.8555L60.0273 29.4336L60.4141 29.1172L60.4492 28.5195C60.918 27.3242 61.4102 26.1758 61.9258 25.0742C62.4648 23.9727 63.0156 22.8477 63.5781 21.6992C63.7656 21.3242 63.9414 20.9492 64.1055 20.5742C64.293 20.1992 64.4805 19.8242 64.668 19.4492C64.6445 19.3789 64.6328 19.2969 64.6328 19.2031C64.6328 19.1094 64.6562 19.0039 64.7031 18.8867C64.9609 18.4883 65.1719 18.1367 65.3359 17.832C65.5 17.5039 65.6641 17.1758 65.8281 16.8477C66.0156 16.4492 66.2031 16.0625 66.3906 15.6875C66.6016 15.3125 66.8594 14.9258 67.1641 14.5273L67.7266 14.2812C67.7969 14.2578 67.8789 14.2344 67.9727 14.2109C68.0664 14.1641 68.1719 14.1406 68.2891 14.1406L68.8164 14.2109C69.4727 13.9063 70.0469 13.4844 70.5391 12.9453C71.0312 12.3828 71.5352 11.7148 72.0508 10.9414L72.4023 10.4492L72.8594 10.7305C72.9766 10.8008 73.1406 10.8711 73.3516 10.9414C73.5625 10.9883 73.7852 11.0469 74.0195 11.1172C74.4414 11.2109 74.8398 11.3164 75.2148 11.4336C75.5898 11.5508 75.8945 11.7266 76.1289 11.9609C76.2695 12.3359 76.3516 12.6172 76.375 12.8047C76.3984 12.9922 76.4336 13.1797 76.4805 13.3672C76.5508 13.7656 76.6094 14.1641 76.6562 14.5625C76.7266 14.9609 76.7734 15.4062 76.7969 15.8984C76.9141 16.2969 77.0078 16.6953 77.0781 17.0938C77.1719 17.4688 77.2539 17.8555 77.3242 18.2539C77.4414 18.8164 77.5586 19.3672 77.6758 19.9062C77.793 20.4219 77.9453 20.9141 78.1328 21.3828C78.3203 21.3828 78.4375 21.3945 78.4844 21.418C78.6016 21.3711 78.7188 21.3359 78.8359 21.3125C78.9766 21.2891 79.1289 21.2656 79.293 21.2422L79.6797 21.207L79.8203 21.5586C79.8438 21.6758 79.9609 21.793 80.1719 21.9102C80.4766 21.9336 80.6992 22.0039 80.8398 22.1211C80.9805 22.2148 81.1094 22.3203 81.2266 22.4375C81.3203 22.5312 81.4141 22.6016 81.5078 22.6484L82.0352 22.8594L81.7539 23.3867C81.5195 23.8086 81.1797 24.2188 80.7344 24.6172C80.3125 24.9922 79.832 25.3086 79.293 25.5664C79.3164 25.707 79.3281 25.8477 79.3281 25.9883C79.3516 26.1055 79.3867 26.2344 79.4336 26.375C79.5039 26.7734 79.5625 27.1836 79.6094 27.6055C79.6562 28.0273 79.6562 28.4609 79.6094 28.9062L79.5391 29.0469ZM69.3789 22.9648C70.082 22.918 70.7148 22.8711 71.2773 22.8242C71.8633 22.7539 72.5078 22.6484 73.2109 22.5078C73.0469 21.8047 72.8711 21.0781 72.6836 20.3281C72.4961 19.5547 72.2969 18.793 72.0859 18.043L71.875 18.3945C71.4062 18.8867 70.9492 19.4375 70.5039 20.0469C70.082 20.6562 69.7188 21.2305 69.4141 21.7695C69.2734 21.9805 69.1328 22.1914 68.9922 22.4023C68.8516 22.6133 68.7227 22.8242 68.6055 23.0352C68.7461 23.0117 68.875 23 68.9922 23C69.1328 23 69.2617 22.9883 69.3789 22.9648ZM94.7617 36.8164C95.0898 37.0977 95.3242 37.4375 95.4648 37.8359C95.6289 38.2344 95.6641 38.7031 95.5703 39.2422C95.3828 39.6641 95.1367 40.0273 94.832 40.332C94.5508 40.6367 94.1758 40.9531 93.707 41.2812C93.332 41.4453 92.957 41.5742 92.582 41.668C92.2305 41.7617 91.9141 41.8789 91.6328 42.0195C91.5156 41.9727 91.3984 41.9609 91.2812 41.9844C91.1875 42.0078 91.0938 41.9961 91 41.9492C90.6484 42.1133 90.25 42.2305 89.8047 42.3008C89.3828 42.3711 88.9375 42.3359 88.4688 42.1953C88.1172 42.2422 87.7656 42.2539 87.4141 42.2305C87.0625 42.2305 86.7344 42.1953 86.4297 42.125C86.1484 42.0547 85.9023 41.9492 85.6914 41.8086C85.5039 41.668 85.375 41.4805 85.3047 41.2461C84.9062 41.0117 84.6484 40.7188 84.5312 40.3672C84.4141 40.0156 84.4727 39.6641 84.707 39.3125C84.8242 39.2656 84.9062 39.2305 84.9531 39.207C85 39.207 85.082 39.1602 85.1992 39.0664C86.043 39.0898 86.9102 39.0898 87.8008 39.0664C88.7148 39.043 89.6992 38.9258 90.7539 38.7148C90.7773 38.6211 90.8359 38.5391 90.9297 38.4688C91.0234 38.4219 91.1172 38.375 91.2109 38.3281C91.3281 38.3047 91.4336 38.2695 91.5273 38.2227C91.6445 38.1758 91.7266 38.1055 91.7734 38.0117C91.7734 37.9414 91.75 37.8828 91.7031 37.8359C91.6562 37.8125 91.5977 37.7891 91.5273 37.7656C91.4805 37.7422 91.4336 37.707 91.3867 37.6602C91.3633 37.6367 91.3516 37.5781 91.3516 37.4844C91.1406 37.5078 90.8945 37.4609 90.6133 37.3438C90.332 37.25 90.0977 37.1445 89.9102 37.0273C89.5586 37.0039 89.3008 36.9805 89.1367 36.957C88.9961 36.9336 88.8672 36.8984 88.75 36.8516C88.6328 36.8047 88.5039 36.7461 88.3633 36.6758C88.2227 36.6289 87.9883 36.5586 87.6602 36.4648C87.543 36.3242 87.4141 36.207 87.2734 36.1133C87.1562 36.043 87.0391 35.9727 86.9219 35.9023C86.8047 35.832 86.7109 35.7383 86.6406 35.6211C86.5703 35.5273 86.5234 35.3867 86.5 35.1992C86.5234 34.8008 86.5352 34.4727 86.5352 34.2148C86.5586 33.957 86.6289 33.5938 86.7461 33.125C86.8867 32.9609 87.0859 32.7266 87.3438 32.4219C87.625 32.1172 87.9297 31.8008 88.2578 31.4727C87.8828 31.3789 87.5312 31.2852 87.2031 31.1914C86.875 31.0977 86.5469 30.9922 86.2188 30.875C85.9844 30.6172 85.75 30.3828 85.5156 30.1719C85.2812 29.9375 84.9648 29.7734 84.5664 29.6797C84.0039 29.2344 83.5469 28.6953 83.1953 28.0625C82.8438 27.4062 82.5625 26.7148 82.3516 25.9883C82.1406 25.2617 82 24.5234 81.9297 23.7734C81.8594 23 81.8359 22.2617 81.8594 21.5586C82.2109 20.5039 82.7031 19.6016 83.3359 18.8516C83.9922 18.0781 84.6602 17.3164 85.3398 16.5664C85.6445 16.4258 85.8672 16.2852 86.0078 16.1445C86.1719 15.9805 86.3359 15.8398 86.5 15.7227C86.6875 15.582 86.8633 15.4531 87.0273 15.3359C87.2148 15.1953 87.3789 15.0312 87.5195 14.8438C88.0117 14.7266 88.4336 14.5625 88.7852 14.3516C89.1602 14.1172 89.5234 13.8828 89.875 13.6484C90.2266 13.3906 90.5898 13.1562 90.9648 12.9453C91.3398 12.7344 91.7734 12.5703 92.2656 12.4531C92.4531 12.2422 92.6758 12.0781 92.9336 11.9609C93.1914 11.8203 93.4492 11.6914 93.707 11.5742C93.9883 11.4336 94.2461 11.293 94.4805 11.1523C94.7383 11.0117 94.9375 10.8242 95.0781 10.5898C95.1953 10.7773 95.3594 10.8477 95.5703 10.8008C95.7812 10.7305 95.9805 10.6602 96.168 10.5898C96.2852 10.5664 96.3789 10.5898 96.4492 10.6602C96.543 10.7305 96.625 10.8008 96.6953 10.8711C96.7656 10.9414 96.8242 10.9883 96.8711 11.0117C96.9414 11.0117 97 10.9531 97.0469 10.8359C97.1641 10.8359 97.1992 10.8945 97.1523 11.0117C97.1055 11.1289 97.0703 11.2109 97.0469 11.2578C97.2344 11.2344 97.3867 11.2812 97.5039 11.3984C97.6445 11.4922 97.8555 11.5508 98.1367 11.5742C98.2305 11.6914 98.2539 11.7852 98.207 11.8555C98.1602 11.9023 98.1367 11.9961 98.1367 12.1367C98.8398 12.3477 99.2852 12.6875 99.4727 13.1562C99.6602 13.6016 99.6719 14.0703 99.5078 14.5625C99.3438 15.0547 99.0508 15.5117 98.6289 15.9336C98.207 16.3555 97.75 16.6367 97.2578 16.7773C96.1328 17.082 95.0664 17.4219 94.0586 17.7969C93.0742 18.1484 92.2656 18.6758 91.6328 19.3789C91.0703 19.543 90.5664 19.7656 90.1211 20.0469C89.6992 20.3047 89.2891 20.6094 88.8906 20.9609C88.5156 21.2891 88.1523 21.6406 87.8008 22.0156C87.4727 22.3672 87.1211 22.7188 86.7461 23.0703C86.7695 23.3984 86.7109 23.6562 86.5703 23.8438C86.4531 24.0078 86.3359 24.1836 86.2188 24.3711C86.2656 24.7227 86.3477 25.0391 86.4648 25.3203C86.582 25.5781 86.7109 25.8359 86.8516 26.0938C88.3984 26.5625 90.0391 26.8555 91.7734 26.9727C93.5312 27.0898 95.2891 27.1602 97.0469 27.1836C97.2109 27.418 97.3984 27.6406 97.6094 27.8516C97.8438 28.0391 98.0547 28.25 98.2422 28.4844C98.4297 28.6953 98.582 28.9414 98.6992 29.2227C98.8164 29.4805 98.8398 29.8086 98.7695 30.207C98.4414 30.5586 98.0781 30.8867 97.6797 31.1914C97.2812 31.4727 96.8828 31.7656 96.4844 32.0703C96.1094 32.0938 95.6406 32.082 95.0781 32.0352C94.5391 31.9883 94.0352 32.0703 93.5664 32.2812C93.2383 32.2578 92.8984 32.2344 92.5469 32.2109C92.2188 32.1875 91.8789 32.1523 91.5273 32.1055L90.4375 33.7227C90.5078 33.8398 90.6367 33.9102 90.8242 33.9336C91.0117 33.9805 91.1289 34.0625 91.1758 34.1797C91.6211 34.2266 91.9961 34.3438 92.3008 34.5312C92.6289 34.7188 92.9102 34.918 93.1445 35.1289C93.4023 35.3633 93.6484 35.5977 93.8828 35.832C94.1172 36.0898 94.3867 36.3008 94.6914 36.4648C94.6914 36.5352 94.7148 36.582 94.7617 36.6055C94.8086 36.6523 94.8086 36.7227 94.7617 36.8164ZM118.949 29.0469C118.809 29.4453 118.598 29.8555 118.316 30.2773C118.059 30.6758 117.742 31.0391 117.367 31.3672C117.016 31.6719 116.617 31.9297 116.172 32.1406C115.727 32.3516 115.258 32.4688 114.766 32.4922C114.461 32.4219 114.25 32.3398 114.133 32.2461C114.039 32.1758 113.934 32.1055 113.816 32.0352C113.746 31.9883 113.676 31.9531 113.605 31.9297C113.559 31.8828 113.512 31.8477 113.465 31.8242L113.043 31.6484L113.184 31.1914C113.23 31.0039 113.219 30.8633 113.148 30.7695C113.078 30.6523 112.938 30.5 112.727 30.3125C112.656 30.2422 112.586 30.1719 112.516 30.1016C112.445 30.0312 112.387 29.9609 112.34 29.8906L111.742 29.2227L112.691 28.9766C113.277 28.8125 113.664 28.6016 113.852 28.3438C114.062 28.0859 114.145 27.6523 114.098 27.043C113.629 26.9492 113.23 26.9375 112.902 27.0078C112.598 27.0781 112.281 27.1602 111.953 27.2539C111.531 27.3711 111.098 27.4766 110.652 27.5703C110.23 27.6406 109.762 27.6758 109.246 27.6758C109.059 27.6758 108.883 27.6758 108.719 27.6758C108.555 27.6523 108.379 27.6289 108.191 27.6055L107.84 27.5352C107.793 27.2773 107.746 27.1367 107.699 27.1133C107.652 27.0664 107.605 27.0195 107.559 26.9727C107.441 26.8555 107.312 26.7031 107.172 26.5156C107.055 26.3047 107.031 26.0469 107.102 25.7422C106.984 25.5312 106.914 25.3203 106.891 25.1094C106.75 25.3906 106.645 25.6836 106.574 25.9883L106.434 26.3398L106.082 26.4102C106.035 26.4336 106 26.4922 105.977 26.5859C105.953 26.6562 105.941 26.7148 105.941 26.7617L105.766 27.3594C105.719 27.4062 105.672 27.4531 105.625 27.5C105.578 27.5234 105.531 27.5586 105.484 27.6055C105.438 27.8164 105.379 28.0273 105.309 28.2383C105.238 28.4492 105.168 28.6484 105.098 28.8359C104.98 29.1406 104.875 29.4453 104.781 29.75C104.711 30.0312 104.688 30.3125 104.711 30.5938L104.57 30.9805C104.453 31.1211 104.324 31.2383 104.184 31.332C104.043 31.4023 103.902 31.4727 103.762 31.543C103.715 31.5898 103.645 31.6367 103.551 31.6836C103.48 31.707 103.422 31.7305 103.375 31.7539L103.27 32.1406L102.848 32.2109C102.59 32.2578 102.402 32.293 102.285 32.3164C102.191 32.3398 102.074 32.3516 101.934 32.3516L101.582 32.3164C101.324 32.1055 101.125 31.9414 100.984 31.8242C100.844 31.6836 100.68 31.5547 100.492 31.4375C100.281 31.1562 100.164 30.9453 100.141 30.8047C100.117 30.6641 100.094 30.5352 100.07 30.418C100.023 30.2773 100 30.1602 100 30.0664C99.9766 29.9727 99.9414 29.9023 99.8945 29.8555L99.4375 29.4336L99.8242 29.1172L99.8594 28.5195C100.328 27.3242 100.82 26.1758 101.336 25.0742C101.875 23.9727 102.426 22.8477 102.988 21.6992C103.176 21.3242 103.352 20.9492 103.516 20.5742C103.703 20.1992 103.891 19.8242 104.078 19.4492C104.055 19.3789 104.043 19.2969 104.043 19.2031C104.043 19.1094 104.066 19.0039 104.113 18.8867C104.371 18.4883 104.582 18.1367 104.746 17.832C104.91 17.5039 105.074 17.1758 105.238 16.8477C105.426 16.4492 105.613 16.0625 105.801 15.6875C106.012 15.3125 106.27 14.9258 106.574 14.5273L107.137 14.2812C107.207 14.2578 107.289 14.2344 107.383 14.2109C107.477 14.1641 107.582 14.1406 107.699 14.1406L108.227 14.2109C108.883 13.9063 109.457 13.4844 109.949 12.9453C110.441 12.3828 110.945 11.7148 111.461 10.9414L111.812 10.4492L112.27 10.7305C112.387 10.8008 112.551 10.8711 112.762 10.9414C112.973 10.9883 113.195 11.0469 113.43 11.1172C113.852 11.2109 114.25 11.3164 114.625 11.4336C115 11.5508 115.305 11.7266 115.539 11.9609C115.68 12.3359 115.762 12.6172 115.785 12.8047C115.809 12.9922 115.844 13.1797 115.891 13.3672C115.961 13.7656 116.02 14.1641 116.066 14.5625C116.137 14.9609 116.184 15.4062 116.207 15.8984C116.324 16.2969 116.418 16.6953 116.488 17.0938C116.582 17.4688 116.664 17.8555 116.734 18.2539C116.852 18.8164 116.969 19.3672 117.086 19.9062C117.203 20.4219 117.355 20.9141 117.543 21.3828C117.73 21.3828 117.848 21.3945 117.895 21.418C118.012 21.3711 118.129 21.3359 118.246 21.3125C118.387 21.2891 118.539 21.2656 118.703 21.2422L119.09 21.207L119.23 21.5586C119.254 21.6758 119.371 21.793 119.582 21.9102C119.887 21.9336 120.109 22.0039 120.25 22.1211C120.391 22.2148 120.52 22.3203 120.637 22.4375C120.73 22.5312 120.824 22.6016 120.918 22.6484L121.445 22.8594L121.164 23.3867C120.93 23.8086 120.59 24.2188 120.145 24.6172C119.723 24.9922 119.242 25.3086 118.703 25.5664C118.727 25.707 118.738 25.8477 118.738 25.9883C118.762 26.1055 118.797 26.2344 118.844 26.375C118.914 26.7734 118.973 27.1836 119.02 27.6055C119.066 28.0273 119.066 28.4609 119.02 28.9062L118.949 29.0469ZM108.789 22.9648C109.492 22.918 110.125 22.8711 110.688 22.8242C111.273 22.7539 111.918 22.6484 112.621 22.5078C112.457 21.8047 112.281 21.0781 112.094 20.3281C111.906 19.5547 111.707 18.793 111.496 18.043L111.285 18.3945C110.816 18.8867 110.359 19.4375 109.914 20.0469C109.492 20.6562 109.129 21.2305 108.824 21.7695C108.684 21.9805 108.543 22.1914 108.402 22.4023C108.262 22.6133 108.133 22.8242 108.016 23.0352C108.156 23.0117 108.285 23 108.402 23C108.543 23 108.672 22.9883 108.789 22.9648ZM121.797 1.94141C122.195 1.96484 122.5 2.07031 122.711 2.25781C122.945 2.44531 123.062 2.70312 123.062 3.03125C123.016 3.3125 122.934 3.54687 122.816 3.73438C122.652 4.10937 122.5 4.40234 122.359 4.61328C122.242 4.80078 122.113 5 121.973 5.21094C121.762 5.53906 121.551 5.85547 121.34 6.16016C121.152 6.46484 120.93 6.78125 120.672 7.10938C120.508 7.25 120.379 7.34375 120.285 7.39062C120.074 7.57813 119.852 7.75391 119.617 7.91797C119.383 8.05859 119.137 8.1875 118.879 8.30469C118.457 8.46875 118.059 8.57422 117.684 8.62109C117.332 8.64453 116.945 8.65625 116.523 8.65625H116.031C115.773 8.63281 115.504 8.60937 115.223 8.58594C114.965 8.5625 114.742 8.52734 114.555 8.48047C114.203 8.29297 113.922 8.12891 113.711 7.98828C113.523 7.84766 113.336 7.70703 113.148 7.56641C112.938 7.42578 112.762 7.27344 112.621 7.10938C112.48 6.94531 112.352 6.78125 112.234 6.61719C112.141 6.47656 112.023 6.34766 111.883 6.23047C111.766 6.08984 111.648 6.01953 111.531 6.01953C111.414 6.04297 111.297 6.11328 111.18 6.23047C111.086 6.34766 110.98 6.46484 110.863 6.58203C110.816 6.62891 110.77 6.6875 110.723 6.75781C110.676 6.80469 110.629 6.85156 110.582 6.89844C110.441 7.34375 110.16 7.70703 109.738 7.98828C109.527 8.10547 109.363 8.17578 109.246 8.19922C109.129 8.22266 109.023 8.25781 108.93 8.30469L108.578 8.375L108.227 8.44531L107.875 8.41016C107.523 8.52734 107.23 8.58594 106.996 8.58594C106.527 8.5625 106.176 8.45703 105.941 8.26953C105.73 8.05859 105.625 7.80078 105.625 7.49609C105.672 7.21484 105.754 6.98047 105.871 6.79297C106.059 6.41797 106.211 6.125 106.328 5.91406C106.469 5.70312 106.609 5.49219 106.75 5.28125C106.938 4.97656 107.125 4.67187 107.312 4.36719C107.523 4.0625 107.758 3.74609 108.016 3.41797C108.18 3.27734 108.309 3.18359 108.402 3.13672C108.613 2.94922 108.836 2.78516 109.07 2.64453C109.305 2.48047 109.551 2.33984 109.809 2.22266C110.23 2.05859 110.617 1.96484 110.969 1.94141C111.344 1.89453 111.742 1.87109 112.164 1.87109H112.656C113.195 1.91797 113.688 1.97656 114.133 2.04688C114.484 2.23438 114.754 2.39844 114.941 2.53906C115.152 2.67969 115.352 2.82031 115.539 2.96094C115.75 3.10156 115.926 3.25391 116.066 3.41797C116.207 3.58203 116.336 3.74609 116.453 3.91016C116.734 4.30859 116.98 4.49609 117.191 4.47266C117.309 4.47266 117.414 4.42578 117.508 4.33203C117.602 4.21484 117.707 4.08594 117.824 3.94531C117.871 3.875 117.965 3.76953 118.105 3.62891C118.246 3.18359 118.527 2.82031 118.949 2.53906C119.277 2.375 119.547 2.26953 119.758 2.22266L120.109 2.15234L120.461 2.08203H120.812C121.094 1.98828 121.387 1.94141 121.691 1.94141H121.797Z" fill="#131735"/>
<path d="M4.26953 63.9414C3.58984 63.4258 3.02734 62.7812 2.58203 62.0078C2.16016 61.2344 1.82031 60.4141 1.5625 59.5469C1.32812 58.6797 1.16406 57.7891 1.07031 56.875C1 55.9375 0.976562 55.0469 1 54.2031C1.21094 53.5703 1.46875 52.9961 1.77344 52.4805C2.07812 51.9414 2.41797 51.4375 2.79297 50.9688C3.16797 50.4766 3.55469 50.0195 3.95312 49.5977C4.375 49.1523 4.78516 48.707 5.18359 48.2617C5.32422 48.2617 5.45312 48.2969 5.57031 48.3672C5.66406 48.1094 5.80469 47.8867 5.99219 47.6992C6.17969 47.5117 6.37891 47.3477 6.58984 47.207C6.80078 47.043 7.01172 46.8906 7.22266 46.75C7.43359 46.5859 7.60938 46.3984 7.75 46.1875C8.33594 46.0469 8.85156 45.8477 9.29688 45.5898C9.76562 45.332 10.2109 45.0508 10.6328 44.7461C11.0547 44.4414 11.4883 44.1602 11.9336 43.9023C12.3789 43.6445 12.8945 43.4453 13.4805 43.3047C13.6914 43.0703 13.9492 42.8711 14.2539 42.707C14.582 42.543 14.8984 42.3906 15.2031 42.25C15.5312 42.1094 15.8359 41.957 16.1172 41.793C16.4219 41.6289 16.668 41.4062 16.8555 41.125C16.9961 41.3125 17.1953 41.3828 17.4531 41.3359C17.7109 41.2656 17.9453 41.1953 18.1562 41.125C18.2969 41.1016 18.4141 41.125 18.5078 41.1953C18.6016 41.2656 18.6836 41.3477 18.7539 41.4414C18.8477 41.5117 18.918 41.5586 18.9648 41.582C19.0352 41.6055 19.1055 41.5352 19.1758 41.3711C19.3633 41.3945 19.4102 41.4766 19.3164 41.6172C19.2461 41.7578 19.1992 41.8516 19.1758 41.8984C19.4102 41.8516 19.5977 41.8984 19.7383 42.0391C19.9023 42.1562 20.1484 42.2383 20.4766 42.2852C20.5938 42.4023 20.6289 42.4961 20.582 42.5664C20.5352 42.6367 20.5 42.7539 20.4766 42.918C21.3203 43.1758 21.8594 43.5859 22.0938 44.1484C22.3281 44.6875 22.3516 45.2617 22.1641 45.8711C21.9766 46.457 21.625 47.0078 21.1094 47.5234C20.6172 48.0156 20.0664 48.3438 19.457 48.5078C18.7305 48.6953 18.0508 48.8828 17.418 49.0703C16.8086 49.2578 16.2109 49.4688 15.625 49.7031C15.0625 49.9375 14.5234 50.2188 14.0078 50.5469C13.5156 50.8516 13.082 51.2148 12.707 51.6367C12.0508 51.8242 11.4531 52.082 10.9141 52.4102C10.3984 52.7383 9.90625 53.1016 9.4375 53.5C8.99219 53.8984 8.55859 54.3203 8.13672 54.7656C7.71484 55.1875 7.29297 55.6094 6.87109 56.0312C6.87109 56.4297 6.80078 56.7344 6.66016 56.9453C6.51953 57.1562 6.36719 57.3672 6.20312 57.5781C6.25 58.0234 6.34375 58.4102 6.48438 58.7383C6.64844 59.043 6.8125 59.3594 6.97656 59.6875C8.85156 60.25 10.832 60.6016 12.918 60.7422C15.0273 60.8594 17.1133 60.9297 19.1758 60.9531C19.3867 61.2344 19.6211 61.5039 19.8789 61.7617C20.1602 61.9961 20.4062 62.2422 20.6172 62.5C20.8516 62.7578 21.0273 63.0625 21.1445 63.4141C21.2852 63.7422 21.3203 64.1406 21.25 64.6094C20.8516 65.0078 20.418 65.3945 19.9492 65.7695C19.4805 66.1211 19.0117 66.4727 18.543 66.8242C18.332 66.8477 18.0742 66.8477 17.7695 66.8242C17.4883 66.8008 17.1836 66.7891 16.8555 66.7891C16.5508 66.7891 16.2344 66.8125 15.9062 66.8594C15.6016 66.8828 15.3086 66.9531 15.0273 67.0703C13.5508 67.0234 12.0391 66.8477 10.4922 66.543C8.94531 66.2148 7.51562 65.8281 6.20312 65.3828C5.94531 65.0781 5.67578 64.7969 5.39453 64.5391C5.11328 64.2578 4.73828 64.0586 4.26953 63.9414ZM43.5039 56.4531C43.4805 56.7344 43.5039 57.0039 43.5742 57.2617C43.6445 57.5195 43.7266 57.7773 43.8203 58.0352C43.9375 58.2695 44.043 58.5156 44.1367 58.7734C44.2305 59.0312 44.3008 59.2891 44.3477 59.5469C44.3945 59.875 44.3945 60.2383 44.3477 60.6367C44.3008 61.0117 44.2188 61.3867 44.1016 61.7617C43.9844 62.1133 43.832 62.4414 43.6445 62.7461C43.457 63.0273 43.2344 63.2383 42.9766 63.3789C42.6484 63.8008 42.25 64.1289 41.7812 64.3633C41.3125 64.5977 40.8789 64.8789 40.4805 65.207C40.2227 65.3711 39.9297 65.4883 39.6016 65.5586C39.2969 65.6289 38.9805 65.6992 38.6523 65.7695C38.3945 65.9102 38.0898 66.0625 37.7383 66.2266C37.3867 66.3672 37.0234 66.5078 36.6484 66.6484C36.2734 66.7656 35.8984 66.8594 35.5234 66.9297C35.1484 66.9766 34.8203 66.9883 34.5391 66.9648C33.8359 67.2227 33.1445 67.3867 32.4648 67.457C31.8086 67.5508 31.0352 67.5039 30.1445 67.3164C29.3008 67.4336 28.5156 67.3984 27.7891 67.2109C27.0859 67.0234 26.4531 66.7305 25.8906 66.332C25.3516 65.9102 24.8711 65.418 24.4492 64.8555C24.0508 64.2695 23.7227 63.6602 23.4648 63.0273C23.2773 61.6914 23.3242 60.4844 23.6055 59.4062C23.8867 58.3047 24.2852 57.2969 24.8008 56.3828C25.3398 55.4453 25.9492 54.5898 26.6289 53.8164C27.3086 53.0195 27.9648 52.2461 28.5977 51.4961C28.7383 51.543 28.8438 51.543 28.9141 51.4961C29.0078 51.4258 29.0898 51.3438 29.1602 51.25C29.2305 51.1328 29.3008 51.0273 29.3711 50.9336C29.4648 50.8398 29.5703 50.7812 29.6875 50.7578C29.8516 50.4062 30.0859 50.1484 30.3906 49.9844C30.7188 49.7969 30.9766 49.5391 31.1641 49.2109C31.375 49.1641 31.5508 49.0938 31.6914 49C31.832 48.9062 31.9609 48.8008 32.0781 48.6836C32.2188 48.5664 32.3594 48.4609 32.5 48.3672C32.6406 48.25 32.8047 48.168 32.9922 48.1211V47.7344C33.4141 47.5469 33.7188 47.3359 33.9062 47.1016C34.1172 46.8438 34.3633 46.5391 34.6445 46.1875C34.8555 46.1641 35.0195 46.1523 35.1367 46.1523C35.2773 46.1523 35.4766 46.1289 35.7344 46.082C35.9219 45.7539 36.0859 45.5078 36.2266 45.3438C36.3906 45.1797 36.625 45.0039 36.9297 44.8164C37.2109 44.957 37.5156 45.0508 37.8438 45.0977C38.1953 45.1445 38.5 45.2969 38.7578 45.5547C38.7812 45.7891 38.8516 45.9766 38.9688 46.1172C39.0859 46.2344 39.2148 46.3516 39.3555 46.4688C39.4961 46.5625 39.625 46.668 39.7422 46.7852C39.8828 46.9023 39.9766 47.0664 40.0234 47.2773C40.1172 47.3008 40.1758 47.2891 40.1992 47.2422C40.2461 47.1953 40.3164 47.1836 40.4102 47.207C40.4805 47.5352 40.5625 47.7578 40.6562 47.875C40.75 47.9688 40.8438 48.168 40.9375 48.4727C40.8203 48.707 40.7266 48.9531 40.6562 49.2109C40.6094 49.4453 40.4688 49.6211 40.2344 49.7383C40.2109 49.9023 40.2578 49.9961 40.375 50.0195C40.4922 50.0195 40.5625 50.0781 40.5859 50.1953C40.6094 50.4062 40.5742 50.5586 40.4805 50.6523C41.043 51.5664 41.5469 52.5391 41.9922 53.5703C42.4375 54.5781 42.9414 55.5391 43.5039 56.4531ZM39.1094 59.793C39.2031 59.5352 39.3203 59.3242 39.4609 59.1602C39.625 58.9961 39.7188 58.75 39.7422 58.4219C39.625 58.2344 39.5547 58.0938 39.5312 58C39.5078 57.8828 39.4961 57.707 39.4961 57.4727C38.9805 56.7461 38.5352 55.9727 38.1602 55.1523C37.7852 54.3086 37.3633 53.5234 36.8945 52.7969C36.8477 52.8906 36.7656 52.9844 36.6484 53.0781C36.5312 53.1719 36.4023 53.1484 36.2617 53.0078C36.2148 53.1953 36.1328 53.3359 36.0156 53.4297C35.8984 53.5 35.7695 53.5352 35.6289 53.5352C35.4883 53.5117 35.3359 53.4766 35.1719 53.4297C35.0312 53.3594 34.9023 53.2773 34.7852 53.1836C34.1055 53.7227 33.4258 54.25 32.7461 54.7656C32.0664 55.2812 31.457 55.8789 30.918 56.5586C30.8242 56.6055 30.7656 56.6289 30.7422 56.6289C30.7188 56.6055 30.6484 56.6172 30.5312 56.6641C30.3438 57.1094 30.1094 57.5195 29.8281 57.8945C29.5703 58.2461 29.3125 58.6094 29.0547 58.9844C28.7969 59.3594 28.5742 59.7578 28.3867 60.1797C28.1992 60.6016 28.0938 61.0938 28.0703 61.6562C28.4688 61.9844 28.9375 62.1836 29.4766 62.2539C30.0156 62.3242 30.5664 62.3359 31.1289 62.2891C31.7148 62.2422 32.2773 62.1719 32.8164 62.0781C33.3789 61.9609 33.8945 61.9023 34.3633 61.9023C35.3477 61.668 36.1914 61.3633 36.8945 60.9883C37.5977 60.5898 38.3359 60.1914 39.1094 59.793ZM52.8555 60.6016C52.6445 60.6484 52.4922 60.7773 52.3984 60.9883C52.3047 61.1758 52.2109 61.375 52.1172 61.5859C52.0469 61.7969 51.9648 61.9961 51.8711 62.1836C51.8008 62.3477 51.6836 62.4297 51.5195 62.4297C51.4961 62.6172 51.4258 62.7812 51.3086 62.9219C51.2148 63.0625 51.1211 63.2148 51.0273 63.3789C50.9336 63.5195 50.8633 63.6836 50.8164 63.8711C50.7695 64.0352 50.793 64.2344 50.8867 64.4688C50.6992 64.6094 50.582 64.8086 50.5352 65.0664C50.4883 65.3242 50.4297 65.5703 50.3594 65.8047C50.3125 66.0391 50.2188 66.2383 50.0781 66.4023C49.9375 66.5664 49.6797 66.6367 49.3047 66.6133C49.2344 66.707 49.2227 66.7656 49.2695 66.7891C49.3164 66.8125 49.3516 66.8945 49.375 67.0352C49.1172 66.9883 48.918 67 48.7773 67.0703C48.6602 67.1641 48.5078 67.2227 48.3203 67.2461C47.875 67.1055 47.5 66.8594 47.1953 66.5078C46.9141 66.1562 46.6562 65.7695 46.4219 65.3477C46.2109 64.9023 46.0117 64.457 45.8242 64.0117C45.6602 63.5664 45.4961 63.1797 45.332 62.8516C45.4023 62.5938 45.4141 62.3477 45.3672 62.1133C45.3203 61.8555 45.2383 61.6445 45.1211 61.4805C46.2695 59.043 47.5234 56.4414 48.8828 53.6758C50.2422 50.9102 51.5312 48.1797 52.75 45.4844C53.2891 45.6953 53.8164 45.9414 54.332 46.2227C54.8711 46.4805 55.3516 46.7852 55.7734 47.1367C56.2188 47.4883 56.5938 47.8984 56.8984 48.3672C57.2031 48.8125 57.4023 49.3164 57.4961 49.8789C57.4492 50.0195 57.3906 50.0781 57.3203 50.0547C57.2734 50.0078 57.2266 50.0195 57.1797 50.0898C57.2734 50.207 57.3203 50.2891 57.3203 50.3359C57.3438 50.3828 57.3438 50.4297 57.3203 50.4766C57.3203 50.5234 57.3203 50.5938 57.3203 50.6875C57.3203 50.7578 57.3555 50.8633 57.4258 51.0039C57.332 50.9805 57.2617 50.9922 57.2148 51.0391C57.1914 51.0859 57.1211 51.0859 57.0039 51.0391C57.0977 51.2969 57.1211 51.5078 57.0742 51.6719C57.0508 51.8359 57.0039 51.9883 56.9336 52.1289C56.8633 52.2461 56.8047 52.3867 56.7578 52.5508C56.7109 52.6914 56.7227 52.8789 56.793 53.1133C56.7227 53.1133 56.6641 53.1367 56.6172 53.1836C56.5938 53.207 56.5703 53.2422 56.5469 53.2891C56.5234 53.3125 56.4883 53.3477 56.4414 53.3945C56.418 53.418 56.3711 53.418 56.3008 53.3945C56.3711 53.9102 56.3945 54.4258 56.3711 54.9414C56.3477 55.457 56.3242 55.9844 56.3008 56.5234C56.3008 57.0391 56.3125 57.5898 56.3359 58.1758C56.3594 58.7383 56.4414 59.3242 56.582 59.9336C57.4258 59.4414 58.0938 58.8086 58.5859 58.0352C59.1016 57.2617 59.5117 56.3945 59.8164 55.4336C60.1445 54.4727 60.3906 53.4414 60.5547 52.3398C60.7188 51.2383 60.8945 50.1133 61.082 48.9648C61.293 48.7539 61.457 48.4961 61.5742 48.1914C61.6914 47.8867 61.7969 47.5703 61.8906 47.2422C61.9844 46.8906 62.0781 46.5508 62.1719 46.2227C62.2656 45.8711 62.3828 45.5547 62.5234 45.2734C62.875 45.3203 63.168 45.4375 63.4023 45.625C63.6602 45.7891 63.8945 45.9766 64.1055 46.1875C64.3164 46.375 64.5391 46.5625 64.7734 46.75C65.0078 46.9141 65.3008 47.0195 65.6523 47.0664C65.9336 47.4648 66.1914 47.8516 66.4258 48.2266C66.6602 48.6016 66.8125 49 66.8828 49.4219C66.7656 49.6094 66.6719 49.8203 66.6016 50.0547C66.5547 50.2891 66.4961 50.5234 66.4258 50.7578C66.3555 50.9922 66.2617 51.2148 66.1445 51.4258C66.0273 51.6133 65.8633 51.7773 65.6523 51.918C65.582 52.5273 65.4883 53.0898 65.3711 53.6055C65.2773 54.0977 65.1719 54.5898 65.0547 55.082C64.9609 55.5742 64.8789 56.0898 64.8086 56.6289C64.7383 57.1445 64.7148 57.7188 64.7383 58.3516C64.5508 58.8906 64.3516 59.4648 64.1406 60.0742C63.9297 60.6836 63.7656 61.2344 63.6484 61.7266C63.2734 62.0312 62.9805 62.3945 62.7695 62.8164C62.5586 63.2383 62.3359 63.6602 62.1016 64.082C62.0078 64.1758 61.9492 64.1992 61.9258 64.1523C61.9023 64.1055 61.8203 64.0703 61.6797 64.0469C61.7031 64.1406 61.7031 64.2109 61.6797 64.2578C61.6562 64.3047 61.6211 64.3516 61.5742 64.3984C61.5508 64.4219 61.5273 64.4688 61.5039 64.5391C61.5039 64.6094 61.5273 64.7031 61.5742 64.8203C61.2461 64.9609 60.9531 65.1602 60.6953 65.418C60.4375 65.6758 60.1562 65.9102 59.8516 66.1211C59.5703 66.332 59.2188 66.4727 58.7969 66.543C58.3984 66.6133 57.8711 66.5312 57.2148 66.2969C56.2539 65.5938 55.3984 64.7852 54.6484 63.8711C53.9219 62.957 53.3242 61.8672 52.8555 60.6016ZM85.5859 47.207C85.6094 47.3711 85.6094 47.5 85.5859 47.5938C85.5859 47.6641 85.5742 47.7344 85.5508 47.8047C85.5508 47.875 85.5508 47.957 85.5508 48.0508C85.5508 48.1211 85.5742 48.2383 85.6211 48.4023C85.1289 49.1992 84.5547 49.75 83.8984 50.0547C83.2656 50.3359 82.5742 50.5469 81.8242 50.6875C81.0742 50.8047 80.3008 50.9336 79.5039 51.0742C78.7305 51.2148 77.957 51.5195 77.1836 51.9883C76.8789 51.8711 76.5977 51.8711 76.3398 51.9883C76.1055 52.1055 75.7539 52.1406 75.2852 52.0938C75.1445 52.2344 74.9688 52.3398 74.7578 52.4102C74.5469 52.457 74.3359 52.5156 74.125 52.5859C74.2188 52.7969 74.2539 53.0195 74.2305 53.2539C74.2305 53.4648 74.2656 53.6406 74.3359 53.7812C75.1562 53.8516 76.0586 53.8398 77.043 53.7461C78.0508 53.6523 79.0352 53.5938 79.9961 53.5703C80.0195 53.6875 80.0078 53.7695 79.9609 53.8164C79.9141 53.8398 79.9023 53.8984 79.9258 53.9922C80.0898 54.1094 80.2539 54.2617 80.418 54.4492C80.582 54.6133 80.7461 54.7773 80.9102 54.9414C81.0742 55.1055 81.2383 55.2461 81.4023 55.3633C81.5898 55.457 81.8008 55.4922 82.0352 55.4688C82.1289 55.6562 82.1875 55.8672 82.2109 56.1016C82.2578 56.3125 82.2344 56.5352 82.1406 56.7695C81.7656 57.0273 81.3906 57.2969 81.0156 57.5781C80.6406 57.8359 80.2422 58.0703 79.8203 58.2812C79.4219 58.4922 78.9883 58.668 78.5195 58.8086C78.0742 58.9258 77.5703 58.9727 77.0078 58.9492C76.8906 58.9492 76.7969 58.9492 76.7266 58.9492C76.6797 58.9492 76.6094 58.9141 76.5156 58.8438C76.3281 58.9609 76.0586 58.9961 75.707 58.9492C75.3789 58.9023 75.1211 58.9375 74.9336 59.0547C74.6758 58.9375 74.3594 58.8906 73.9844 58.9141C73.6328 58.9141 73.3164 58.8672 73.0352 58.7734C72.6602 59.2656 72.3203 59.793 72.0156 60.3555C71.7109 60.918 71.4414 61.5156 71.207 62.1484C72.0039 62.2656 72.6602 62.3125 73.1758 62.2891C73.7148 62.2656 74.2188 62.2305 74.6875 62.1836C75.1562 62.1133 75.6367 62.0547 76.1289 62.0078C76.6211 61.9375 77.2422 61.9141 77.9922 61.9375C78.4609 61.6797 79.0117 61.5156 79.6445 61.4453C80.3008 61.3516 80.8984 61.2109 81.4375 61.0234C81.625 61.0938 81.7891 61.2227 81.9297 61.4102C82.0703 61.5742 82.1992 61.7383 82.3164 61.9023C82.457 62.043 82.5977 62.1719 82.7383 62.2891C82.8789 62.4062 83.0547 62.4531 83.2656 62.4297C83.3594 62.5234 83.418 62.6406 83.4414 62.7812C83.4883 62.8984 83.5234 63.0156 83.5469 63.1328C83.5703 63.25 83.6055 63.3555 83.6523 63.4492C83.7227 63.5195 83.8281 63.543 83.9688 63.5195C83.6172 64.293 83.207 64.8906 82.7383 65.3125C82.293 65.7109 81.7773 66.0156 81.1914 66.2266C80.6055 66.4375 79.9492 66.6016 79.2227 66.7188C78.5195 66.8359 77.7344 66.9766 76.8672 67.1406C76.6562 67.1875 76.4805 67.1758 76.3398 67.1055C76.1992 67.0586 76.0352 67.0352 75.8477 67.0352C75.3086 67.1523 74.6641 67.2578 73.9141 67.3516C73.1641 67.4453 72.4023 67.4805 71.6289 67.457C70.8555 67.4336 70.1172 67.3281 69.4141 67.1406C68.7109 66.9766 68.1367 66.6719 67.6914 66.2266C67.5039 66.0625 67.375 65.875 67.3047 65.6641C67.2578 65.4297 67.1055 65.2539 66.8477 65.1367C66.8242 64.832 66.7773 64.4922 66.707 64.1172C66.6367 63.7422 66.5664 63.3555 66.4961 62.957C66.4258 62.5352 66.3672 62.125 66.3203 61.7266C66.2969 61.3281 66.3203 60.9648 66.3906 60.6367C66.4609 60.2852 66.6016 59.9688 66.8125 59.6875C67.0469 59.4062 67.1289 59.1016 67.0586 58.7734C67.1758 58.75 67.2461 58.6914 67.2695 58.5977C67.293 58.4805 67.3867 58.4336 67.5508 58.457C67.6914 58.0352 67.8438 57.6367 68.0078 57.2617C68.1719 56.8867 68.3359 56.5234 68.5 56.1719C68.6875 55.8203 68.8633 55.4688 69.0273 55.1172C69.2148 54.7422 69.3906 54.332 69.5547 53.8867C69.2266 53.582 68.9805 53.2539 68.8164 52.9023C68.6758 52.5273 68.5703 52.1641 68.5 51.8125C68.4297 51.4375 68.3711 51.0625 68.3242 50.6875C68.2773 50.2891 68.1953 49.8906 68.0781 49.4922C68.3125 49.1406 68.5938 48.8594 68.9219 48.6484C69.2734 48.4141 69.6484 48.2266 70.0469 48.0859C70.4453 47.9453 70.8789 47.8281 71.3477 47.7344C71.8164 47.6406 72.3086 47.5352 72.8242 47.418C73.7617 47.1133 74.5938 46.8789 75.3203 46.7148C76.0703 46.5508 76.7969 46.4219 77.5 46.3281C78.2266 46.2109 78.9766 46.1055 79.75 46.0117C80.5234 45.918 81.4023 45.7773 82.3867 45.5898C82.5977 45.8008 82.7969 45.9062 82.9844 45.9062C83.0781 45.6953 83.1836 45.6367 83.3008 45.7305C83.4414 45.8008 83.5 45.7305 83.4766 45.5195C83.7109 45.918 84.0039 46.2578 84.3555 46.5391C84.7305 46.7969 85.1406 47.0195 85.5859 47.207ZM99.0156 67.0703C98.6406 67.0938 98.1719 67.082 97.6094 67.0352C97.0703 66.9883 96.5664 67.0703 96.0977 67.2812C94.8555 67.2344 93.5898 67.082 92.3008 66.8242C91.0117 66.5664 89.8281 66.25 88.75 65.875C88.5156 65.6172 88.2812 65.3828 88.0469 65.1719C87.8125 64.9375 87.4961 64.7734 87.0977 64.6797C86.5352 64.2344 86.0781 63.6953 85.7266 63.0625C85.375 62.4062 85.0938 61.7148 84.8828 60.9883C84.6719 60.2617 84.5312 59.5234 84.4609 58.7734C84.3906 58 84.3672 57.2617 84.3906 56.5586C84.7422 55.5039 85.2344 54.6016 85.8672 53.8516C86.5234 53.0781 87.1914 52.3164 87.8711 51.5664C88.1758 51.4258 88.3984 51.2852 88.5391 51.1445C88.7031 50.9805 88.8672 50.8398 89.0312 50.7227C89.2188 50.582 89.3945 50.4531 89.5586 50.3359C89.7461 50.1953 89.9102 50.0312 90.0508 49.8438C90.543 49.7266 90.9648 49.5625 91.3164 49.3516C91.6914 49.1172 92.0547 48.8828 92.4062 48.6484C92.7578 48.3906 93.1211 48.1562 93.4961 47.9453C93.8711 47.7344 94.3047 47.5703 94.7969 47.4531C94.9844 47.2422 95.207 47.0781 95.4648 46.9609C95.7227 46.8203 95.9805 46.6914 96.2383 46.5742C96.5195 46.4336 96.7773 46.293 97.0117 46.1523C97.2695 46.0117 97.4688 45.8242 97.6094 45.5898C97.7266 45.7773 97.8906 45.8477 98.1016 45.8008C98.3125 45.7305 98.5117 45.6602 98.6992 45.5898C98.8164 45.5664 98.9102 45.5898 98.9805 45.6602C99.0742 45.7305 99.1562 45.8008 99.2266 45.8711C99.2969 45.9414 99.3555 45.9883 99.4023 46.0117C99.4727 46.0117 99.5312 45.9531 99.5781 45.8359C99.6953 45.8359 99.7305 45.8945 99.6836 46.0117C99.6367 46.1289 99.6016 46.2109 99.5781 46.2578C99.7656 46.2344 99.918 46.2812 100.035 46.3984C100.176 46.4922 100.387 46.5508 100.668 46.5742C100.762 46.6914 100.785 46.7852 100.738 46.8555C100.691 46.9023 100.668 46.9961 100.668 47.1367C101.371 47.3477 101.816 47.6875 102.004 48.1562C102.191 48.6016 102.203 49.0703 102.039 49.5625C101.875 50.0547 101.582 50.5117 101.16 50.9336C100.738 51.3555 100.281 51.6367 99.7891 51.7773C98.6641 52.082 97.5977 52.4219 96.5898 52.7969C95.6055 53.1484 94.7969 53.6758 94.1641 54.3789C93.6016 54.543 93.0977 54.7656 92.6523 55.0469C92.2305 55.3047 91.8203 55.6094 91.4219 55.9609C91.0469 56.2891 90.6836 56.6406 90.332 57.0156C90.0039 57.3672 89.6523 57.7188 89.2773 58.0703C89.3008 58.3984 89.2422 58.6562 89.1016 58.8438C88.9844 59.0078 88.8672 59.1836 88.75 59.3711C88.7969 59.7227 88.8789 60.0391 88.9961 60.3203C89.1133 60.5781 89.2422 60.8359 89.3828 61.0938C90.9297 61.5625 92.5703 61.8555 94.3047 61.9727C96.0625 62.0898 97.8203 62.1602 99.5781 62.1836C99.7422 62.418 99.9297 62.6406 100.141 62.8516C100.375 63.0391 100.586 63.25 100.773 63.4844C100.961 63.6953 101.113 63.9414 101.23 64.2227C101.348 64.4805 101.371 64.8086 101.301 65.207C100.973 65.5586 100.609 65.8867 100.211 66.1914C99.8125 66.4727 99.4141 66.7656 99.0156 67.0703ZM122.887 50.0898C122.301 50.0898 121.668 50.1367 120.988 50.2305C120.309 50.3008 119.641 50.3828 118.984 50.4766C118.516 50.5469 118.059 50.6055 117.613 50.6523C117.191 50.6992 116.805 50.7344 116.453 50.7578C116.289 51.2734 116.125 51.7305 115.961 52.1289C115.797 52.5273 115.621 52.9141 115.434 53.2891C115.246 53.6875 115.07 54.0977 114.906 54.5195C114.766 54.918 114.625 55.3516 114.484 55.8203C114.25 56.1953 114.051 56.5469 113.887 56.875C113.746 57.1797 113.629 57.5312 113.535 57.9297C113.254 58.2812 113.043 58.6562 112.902 59.0547C112.762 59.4297 112.656 59.7578 112.586 60.0391L112.445 60.4609C112.305 60.6016 112.223 60.7188 112.199 60.8125C112.176 60.8828 112.117 60.9531 112.023 61.0234C112 61.2812 111.918 61.5391 111.777 61.7969C111.73 61.9141 111.695 62.0312 111.672 62.1484C111.648 62.2422 111.637 62.3125 111.637 62.3594C111.637 62.5938 111.578 62.7461 111.461 62.8164C111.484 62.9336 111.484 63.0625 111.461 63.2031C111.438 63.3203 111.414 63.4375 111.391 63.5547C111.32 63.8359 111.297 64.0586 111.32 64.2227C111.391 64.3164 111.449 64.3984 111.496 64.4688C111.566 64.5391 111.613 64.6328 111.637 64.75C111.777 64.8438 111.883 64.9023 111.953 64.9258C112.047 64.9961 112.188 65.0781 112.375 65.1719L112.691 65.5234C112.809 66.2031 112.703 66.7422 112.375 67.1406C112.023 67.5859 111.426 67.8086 110.582 67.8086H110.16C110.043 67.6914 109.973 67.5977 109.949 67.5273C109.762 67.457 109.609 67.3984 109.492 67.3516C109.375 67.3047 109.27 67.2109 109.176 67.0703C108.871 66.9297 108.625 66.8125 108.438 66.7188L108.121 66.543C108.121 66.2852 108.121 66.1445 108.121 66.1211C107.957 65.9102 107.828 65.6758 107.734 65.418C107.664 65.1602 107.605 64.9023 107.559 64.6445C107.512 64.4336 107.453 64.2344 107.383 64.0469C107.336 63.8594 107.266 63.6953 107.172 63.5547C107.125 62.1953 107.254 61.0469 107.559 60.1094C107.863 59.1719 108.18 58.2695 108.508 57.4023C108.695 56.9336 108.883 56.4648 109.07 55.9961C109.258 55.5039 109.422 55 109.562 54.4844L109.879 54.1328C110.043 53.7578 110.172 53.4531 110.266 53.2188C110.383 52.9609 110.5 52.7031 110.617 52.4453C110.688 52.2812 110.746 52.1289 110.793 51.9883C110.863 51.8242 110.922 51.6836 110.969 51.5664C110.828 51.5664 110.699 51.5781 110.582 51.6016C110.465 51.6016 110.348 51.6133 110.23 51.6367C110.09 51.6602 109.961 51.6836 109.844 51.707C109.727 51.707 109.609 51.707 109.492 51.707C109.328 51.707 109.211 51.6953 109.141 51.6719C108.883 51.7891 108.602 51.8477 108.297 51.8477H107.945C107.875 51.8477 107.805 51.8477 107.734 51.8477C107.688 51.8242 107.641 51.8125 107.594 51.8125C107.359 51.8125 107.172 51.8477 107.031 51.918C106.75 51.918 106.48 51.918 106.223 51.918H105.871C105.824 51.918 105.766 51.9297 105.695 51.9531C105.625 51.9531 105.566 51.9531 105.52 51.9531C105.355 51.9531 105.18 51.9414 104.992 51.918C104.805 51.8711 104.605 51.7891 104.395 51.6719C104.113 51.2969 103.926 51.0977 103.832 51.0742L103.516 50.6523C103.492 50.5117 103.457 50.3828 103.41 50.2656C103.363 50.125 103.316 49.9727 103.27 49.8086C103.176 49.5742 103.082 49.3281 102.988 49.0703C102.918 48.7891 102.883 48.4609 102.883 48.0859C102.906 47.8984 102.953 47.7578 103.023 47.6641C103.094 47.5703 103.152 47.4883 103.199 47.418L103.305 46.8906L103.762 46.9258H104.746C105.496 46.9258 106.258 46.9023 107.031 46.8555C107.805 46.7852 108.602 46.7148 109.422 46.6445C109.891 46.5977 110.359 46.5508 110.828 46.5039C111.32 46.457 111.824 46.4102 112.34 46.3633C112.434 46.1523 112.527 45.9531 112.621 45.7656L112.973 45.5898C113.395 45.5664 113.688 45.625 113.852 45.7656C114.039 45.8828 114.191 46 114.309 46.1172C114.824 46.0703 115.34 46.0234 115.855 45.9766C116.395 45.9062 116.934 45.8242 117.473 45.7305C118.27 45.6133 119.066 45.5078 119.863 45.4141C120.684 45.3203 121.469 45.2734 122.219 45.2734C122.547 45.2734 122.863 45.2852 123.168 45.3086C123.473 45.332 123.754 45.3672 124.012 45.4141L124.363 45.6602C124.434 45.8008 124.527 45.9297 124.645 46.0469C124.785 46.1641 124.926 46.2812 125.066 46.3984C125.348 46.6562 125.629 46.9609 125.91 47.3125C126.191 47.6641 126.297 48.1797 126.227 48.8594C126.039 49.1406 125.898 49.3047 125.805 49.3516L125.488 49.7734L125.137 49.7383C124.996 49.7383 124.867 49.7617 124.75 49.8086C124.633 49.832 124.516 49.8672 124.398 49.9141C124.305 49.9609 124.211 50.0078 124.117 50.0547C124.023 50.0781 123.918 50.1016 123.801 50.125C123.59 50.125 123.414 50.125 123.273 50.125C123.156 50.1016 123.027 50.0898 122.887 50.0898ZM136.949 64.0469C136.809 64.4453 136.598 64.8555 136.316 65.2773C136.059 65.6758 135.742 66.0391 135.367 66.3672C135.016 66.6719 134.617 66.9297 134.172 67.1406C133.727 67.3516 133.258 67.4688 132.766 67.4922C132.461 67.4219 132.25 67.3398 132.133 67.2461C132.039 67.1758 131.934 67.1055 131.816 67.0352C131.746 66.9883 131.676 66.9531 131.605 66.9297C131.559 66.8828 131.512 66.8477 131.465 66.8242L131.043 66.6484L131.184 66.1914C131.23 66.0039 131.219 65.8633 131.148 65.7695C131.078 65.6523 130.938 65.5 130.727 65.3125C130.656 65.2422 130.586 65.1719 130.516 65.1016C130.445 65.0312 130.387 64.9609 130.34 64.8906L129.742 64.2227L130.691 63.9766C131.277 63.8125 131.664 63.6016 131.852 63.3438C132.062 63.0859 132.145 62.6523 132.098 62.043C131.629 61.9492 131.23 61.9375 130.902 62.0078C130.598 62.0781 130.281 62.1602 129.953 62.2539C129.531 62.3711 129.098 62.4766 128.652 62.5703C128.23 62.6406 127.762 62.6758 127.246 62.6758C127.059 62.6758 126.883 62.6758 126.719 62.6758C126.555 62.6523 126.379 62.6289 126.191 62.6055L125.84 62.5352C125.793 62.2773 125.746 62.1367 125.699 62.1133C125.652 62.0664 125.605 62.0195 125.559 61.9727C125.441 61.8555 125.312 61.7031 125.172 61.5156C125.055 61.3047 125.031 61.0469 125.102 60.7422C124.984 60.5312 124.914 60.3203 124.891 60.1094C124.75 60.3906 124.645 60.6836 124.574 60.9883L124.434 61.3398L124.082 61.4102C124.035 61.4336 124 61.4922 123.977 61.5859C123.953 61.6562 123.941 61.7148 123.941 61.7617L123.766 62.3594C123.719 62.4062 123.672 62.4531 123.625 62.5C123.578 62.5234 123.531 62.5586 123.484 62.6055C123.438 62.8164 123.379 63.0273 123.309 63.2383C123.238 63.4492 123.168 63.6484 123.098 63.8359C122.98 64.1406 122.875 64.4453 122.781 64.75C122.711 65.0312 122.688 65.3125 122.711 65.5938L122.57 65.9805C122.453 66.1211 122.324 66.2383 122.184 66.332C122.043 66.4023 121.902 66.4727 121.762 66.543C121.715 66.5898 121.645 66.6367 121.551 66.6836C121.48 66.707 121.422 66.7305 121.375 66.7539L121.27 67.1406L120.848 67.2109C120.59 67.2578 120.402 67.293 120.285 67.3164C120.191 67.3398 120.074 67.3516 119.934 67.3516L119.582 67.3164C119.324 67.1055 119.125 66.9414 118.984 66.8242C118.844 66.6836 118.68 66.5547 118.492 66.4375C118.281 66.1562 118.164 65.9453 118.141 65.8047C118.117 65.6641 118.094 65.5352 118.07 65.418C118.023 65.2773 118 65.1602 118 65.0664C117.977 64.9727 117.941 64.9023 117.895 64.8555L117.438 64.4336L117.824 64.1172L117.859 63.5195C118.328 62.3242 118.82 61.1758 119.336 60.0742C119.875 58.9727 120.426 57.8477 120.988 56.6992C121.176 56.3242 121.352 55.9492 121.516 55.5742C121.703 55.1992 121.891 54.8242 122.078 54.4492C122.055 54.3789 122.043 54.2969 122.043 54.2031C122.043 54.1094 122.066 54.0039 122.113 53.8867C122.371 53.4883 122.582 53.1367 122.746 52.832C122.91 52.5039 123.074 52.1758 123.238 51.8477C123.426 51.4492 123.613 51.0625 123.801 50.6875C124.012 50.3125 124.27 49.9258 124.574 49.5273L125.137 49.2812C125.207 49.2578 125.289 49.2344 125.383 49.2109C125.477 49.1641 125.582 49.1406 125.699 49.1406L126.227 49.2109C126.883 48.9062 127.457 48.4844 127.949 47.9453C128.441 47.3828 128.945 46.7148 129.461 45.9414L129.812 45.4492L130.27 45.7305C130.387 45.8008 130.551 45.8711 130.762 45.9414C130.973 45.9883 131.195 46.0469 131.43 46.1172C131.852 46.2109 132.25 46.3164 132.625 46.4336C133 46.5508 133.305 46.7266 133.539 46.9609C133.68 47.3359 133.762 47.6172 133.785 47.8047C133.809 47.9922 133.844 48.1797 133.891 48.3672C133.961 48.7656 134.02 49.1641 134.066 49.5625C134.137 49.9609 134.184 50.4062 134.207 50.8984C134.324 51.2969 134.418 51.6953 134.488 52.0938C134.582 52.4688 134.664 52.8555 134.734 53.2539C134.852 53.8164 134.969 54.3672 135.086 54.9062C135.203 55.4219 135.355 55.9141 135.543 56.3828C135.73 56.3828 135.848 56.3945 135.895 56.418C136.012 56.3711 136.129 56.3359 136.246 56.3125C136.387 56.2891 136.539 56.2656 136.703 56.2422L137.09 56.207L137.23 56.5586C137.254 56.6758 137.371 56.793 137.582 56.9102C137.887 56.9336 138.109 57.0039 138.25 57.1211C138.391 57.2148 138.52 57.3203 138.637 57.4375C138.73 57.5312 138.824 57.6016 138.918 57.6484L139.445 57.8594L139.164 58.3867C138.93 58.8086 138.59 59.2188 138.145 59.6172C137.723 59.9922 137.242 60.3086 136.703 60.5664C136.727 60.707 136.738 60.8477 136.738 60.9883C136.762 61.1055 136.797 61.2344 136.844 61.375C136.914 61.7734 136.973 62.1836 137.02 62.6055C137.066 63.0273 137.066 63.4609 137.02 63.9062L136.949 64.0469ZM126.789 57.9648C127.492 57.918 128.125 57.8711 128.688 57.8242C129.273 57.7539 129.918 57.6484 130.621 57.5078C130.457 56.8047 130.281 56.0781 130.094 55.3281C129.906 54.5547 129.707 53.793 129.496 53.043L129.285 53.3945C128.816 53.8867 128.359 54.4375 127.914 55.0469C127.492 55.6562 127.129 56.2305 126.824 56.7695C126.684 56.9805 126.543 57.1914 126.402 57.4023C126.262 57.6133 126.133 57.8242 126.016 58.0352C126.156 58.0117 126.285 58 126.402 58C126.543 58 126.672 57.9883 126.789 57.9648ZM156.602 57.5078C156.578 57.625 156.555 57.7305 156.531 57.8242C156.508 57.8945 156.484 57.9648 156.461 58.0352C156.438 58.1055 156.426 58.1992 156.426 58.3164C156.426 58.4102 156.426 58.5391 156.426 58.7031C155.723 59.9453 154.832 60.9883 153.754 61.832C152.699 62.6758 151.527 63.4258 150.238 64.082C148.973 64.7148 147.648 65.3008 146.266 65.8398C144.883 66.3555 143.535 66.918 142.223 67.5273C141.66 67.3867 141.227 67.1523 140.922 66.8242C140.641 66.4961 140.418 66.1211 140.254 65.6992C140.113 65.2539 140.008 64.7734 139.938 64.2578C139.891 63.7188 139.844 63.168 139.797 62.6055C139.867 62.3477 139.961 62.1367 140.078 61.9727C140.219 61.7852 140.289 61.5273 140.289 61.1992C140.477 60.5898 140.664 59.9922 140.852 59.4062C141.039 58.8203 141.156 58.2227 141.203 57.6133C141.273 57.4258 141.402 57.2969 141.59 57.2266C141.707 56.1016 141.707 54.9648 141.59 53.8164C141.496 52.6445 141.309 51.5547 141.027 50.5469C141.051 50.3125 141.074 50.1484 141.098 50.0547C141.145 49.9375 141.145 49.8555 141.098 49.8086C141.074 49.6211 141.133 49.5273 141.273 49.5273C141.438 49.5273 141.602 49.5273 141.766 49.5273C141.766 49.1758 141.695 48.8242 141.555 48.4727C141.438 48.1211 141.32 47.7227 141.203 47.2773C141.367 46.9258 141.473 46.5859 141.52 46.2578C141.566 45.9062 141.672 45.6016 141.836 45.3438C143.102 45.7422 144.309 46.2227 145.457 46.7852C146.629 47.3477 147.777 47.7578 148.902 48.0156C149.746 48.625 150.613 49.2344 151.504 49.8438C152.395 50.4297 153.203 51.0859 153.93 51.8125C154.656 52.5156 155.266 53.3242 155.758 54.2383C156.25 55.1523 156.531 56.2422 156.602 57.5078ZM148.27 59.4414C148.762 59.2539 149.242 59.0547 149.711 58.8438C150.203 58.6328 150.648 58.3984 151.047 58.1406C151.469 57.8594 151.844 57.543 152.172 57.1914C152.5 56.8398 152.77 56.418 152.98 55.9258C152.84 55.6445 152.652 55.3984 152.418 55.1875C152.184 54.9531 151.949 54.7422 151.715 54.5547C151.48 54.3438 151.246 54.1328 151.012 53.9219C150.801 53.7109 150.625 53.4531 150.484 53.1484C150.18 53.1016 149.91 53.0195 149.676 52.9023C149.441 52.7617 149.207 52.6328 148.973 52.5156C148.762 52.375 148.527 52.2461 148.27 52.1289C148.035 52.0117 147.754 51.9414 147.426 51.918C146.91 51.6602 146.441 51.4727 146.02 51.3555C145.621 51.2383 145.316 51.0859 145.105 50.8984C144.941 50.8984 144.812 50.9336 144.719 51.0039C144.953 51.8945 145.129 52.7383 145.246 53.5352C145.363 54.3086 145.422 55.0938 145.422 55.8906C145.445 56.6641 145.41 57.4609 145.316 58.2812C145.223 59.1016 145.094 59.9922 144.93 60.9531C145.164 60.9297 145.375 60.8828 145.562 60.8125C145.773 60.7188 145.973 60.625 146.16 60.5312C146.371 60.4375 146.582 60.3555 146.793 60.2852C147.027 60.1914 147.297 60.1328 147.602 60.1094C147.672 59.9688 147.766 59.8516 147.883 59.7578C148.023 59.6641 148.152 59.5586 148.27 59.4414ZM175.762 64.0469C175.621 64.4453 175.41 64.8555 175.129 65.2773C174.871 65.6758 174.555 66.0391 174.18 66.3672C173.828 66.6719 173.43 66.9297 172.984 67.1406C172.539 67.3516 172.07 67.4688 171.578 67.4922C171.273 67.4219 171.062 67.3398 170.945 67.2461C170.852 67.1758 170.746 67.1055 170.629 67.0352C170.559 66.9883 170.488 66.9531 170.418 66.9297C170.371 66.8828 170.324 66.8477 170.277 66.8242L169.855 66.6484L169.996 66.1914C170.043 66.0039 170.031 65.8633 169.961 65.7695C169.891 65.6523 169.75 65.5 169.539 65.3125C169.469 65.2422 169.398 65.1719 169.328 65.1016C169.258 65.0312 169.199 64.9609 169.152 64.8906L168.555 64.2227L169.504 63.9766C170.09 63.8125 170.477 63.6016 170.664 63.3438C170.875 63.0859 170.957 62.6523 170.91 62.043C170.441 61.9492 170.043 61.9375 169.715 62.0078C169.41 62.0781 169.094 62.1602 168.766 62.2539C168.344 62.3711 167.91 62.4766 167.465 62.5703C167.043 62.6406 166.574 62.6758 166.059 62.6758C165.871 62.6758 165.695 62.6758 165.531 62.6758C165.367 62.6523 165.191 62.6289 165.004 62.6055L164.652 62.5352C164.605 62.2773 164.559 62.1367 164.512 62.1133C164.465 62.0664 164.418 62.0195 164.371 61.9727C164.254 61.8555 164.125 61.7031 163.984 61.5156C163.867 61.3047 163.844 61.0469 163.914 60.7422C163.797 60.5312 163.727 60.3203 163.703 60.1094C163.562 60.3906 163.457 60.6836 163.387 60.9883L163.246 61.3398L162.895 61.4102C162.848 61.4336 162.812 61.4922 162.789 61.5859C162.766 61.6562 162.754 61.7148 162.754 61.7617L162.578 62.3594C162.531 62.4062 162.484 62.4531 162.438 62.5C162.391 62.5234 162.344 62.5586 162.297 62.6055C162.25 62.8164 162.191 63.0273 162.121 63.2383C162.051 63.4492 161.98 63.6484 161.91 63.8359C161.793 64.1406 161.688 64.4453 161.594 64.75C161.523 65.0312 161.5 65.3125 161.523 65.5938L161.383 65.9805C161.266 66.1211 161.137 66.2383 160.996 66.332C160.855 66.4023 160.715 66.4727 160.574 66.543C160.527 66.5898 160.457 66.6367 160.363 66.6836C160.293 66.707 160.234 66.7305 160.188 66.7539L160.082 67.1406L159.66 67.2109C159.402 67.2578 159.215 67.293 159.098 67.3164C159.004 67.3398 158.887 67.3516 158.746 67.3516L158.395 67.3164C158.137 67.1055 157.938 66.9414 157.797 66.8242C157.656 66.6836 157.492 66.5547 157.305 66.4375C157.094 66.1562 156.977 65.9453 156.953 65.8047C156.93 65.6641 156.906 65.5352 156.883 65.418C156.836 65.2773 156.812 65.1602 156.812 65.0664C156.789 64.9727 156.754 64.9023 156.707 64.8555L156.25 64.4336L156.637 64.1172L156.672 63.5195C157.141 62.3242 157.633 61.1758 158.148 60.0742C158.688 58.9727 159.238 57.8477 159.801 56.6992C159.988 56.3242 160.164 55.9492 160.328 55.5742C160.516 55.1992 160.703 54.8242 160.891 54.4492C160.867 54.3789 160.855 54.2969 160.855 54.2031C160.855 54.1094 160.879 54.0039 160.926 53.8867C161.184 53.4883 161.395 53.1367 161.559 52.832C161.723 52.5039 161.887 52.1758 162.051 51.8477C162.238 51.4492 162.426 51.0625 162.613 50.6875C162.824 50.3125 163.082 49.9258 163.387 49.5273L163.949 49.2812C164.02 49.2578 164.102 49.2344 164.195 49.2109C164.289 49.1641 164.395 49.1406 164.512 49.1406L165.039 49.2109C165.695 48.9062 166.27 48.4844 166.762 47.9453C167.254 47.3828 167.758 46.7148 168.273 45.9414L168.625 45.4492L169.082 45.7305C169.199 45.8008 169.363 45.8711 169.574 45.9414C169.785 45.9883 170.008 46.0469 170.242 46.1172C170.664 46.2109 171.062 46.3164 171.438 46.4336C171.812 46.5508 172.117 46.7266 172.352 46.9609C172.492 47.3359 172.574 47.6172 172.598 47.8047C172.621 47.9922 172.656 48.1797 172.703 48.3672C172.773 48.7656 172.832 49.1641 172.879 49.5625C172.949 49.9609 172.996 50.4062 173.02 50.8984C173.137 51.2969 173.23 51.6953 173.301 52.0938C173.395 52.4688 173.477 52.8555 173.547 53.2539C173.664 53.8164 173.781 54.3672 173.898 54.9062C174.016 55.4219 174.168 55.9141 174.355 56.3828C174.543 56.3828 174.66 56.3945 174.707 56.418C174.824 56.3711 174.941 56.3359 175.059 56.3125C175.199 56.2891 175.352 56.2656 175.516 56.2422L175.902 56.207L176.043 56.5586C176.066 56.6758 176.184 56.793 176.395 56.9102C176.699 56.9336 176.922 57.0039 177.062 57.1211C177.203 57.2148 177.332 57.3203 177.449 57.4375C177.543 57.5312 177.637 57.6016 177.73 57.6484L178.258 57.8594L177.977 58.3867C177.742 58.8086 177.402 59.2188 176.957 59.6172C176.535 59.9922 176.055 60.3086 175.516 60.5664C175.539 60.707 175.551 60.8477 175.551 60.9883C175.574 61.1055 175.609 61.2344 175.656 61.375C175.727 61.7734 175.785 62.1836 175.832 62.6055C175.879 63.0273 175.879 63.4609 175.832 63.9062L175.762 64.0469ZM165.602 57.9648C166.305 57.918 166.938 57.8711 167.5 57.8242C168.086 57.7539 168.73 57.6484 169.434 57.5078C169.27 56.8047 169.094 56.0781 168.906 55.3281C168.719 54.5547 168.52 53.793 168.309 53.043L168.098 53.3945C167.629 53.8867 167.172 54.4375 166.727 55.0469C166.305 55.6562 165.941 56.2305 165.637 56.7695C165.496 56.9805 165.355 57.1914 165.215 57.4023C165.074 57.6133 164.945 57.8242 164.828 58.0352C164.969 58.0117 165.098 58 165.215 58C165.355 58 165.484 57.9883 165.602 57.9648Z" fill="#131735"/>
<g clip-path="url(#clip0)">
<path d="M146 21.08V22C145.999 24.1564 145.301 26.2547 144.009 27.9818C142.718 29.709 140.903 30.9725 138.835 31.5839C136.767 32.1953 134.557 32.1219 132.534 31.3746C130.512 30.6273 128.785 29.2461 127.611 27.4371C126.437 25.628 125.88 23.4881 126.022 21.3363C126.164 19.1846 126.997 17.1363 128.398 15.4971C129.799 13.8578 131.693 12.7154 133.796 12.2401C135.9 11.7649 138.1 11.9823 140.07 12.86" stroke="#131735" stroke-width="4" stroke-linecap="round" stroke-linejoin="round"/>
<path d="M146 14L136 24.01L133 21.01" stroke="#04A777" stroke-width="3" stroke-linecap="round" stroke-linejoin="round"/>
</g>
<defs>
<clipPath id="clip0">
<rect width="24" height="24" fill="white" transform="translate(124 10)"/>
</clipPath>
</defs>
</svg>
